<?xml version="1.0" standalone="no"?>
<!DOCTYPE svg PUBLIC "-//W3C//DTD SVG 1.1//EN" "http://www.w3.org/Graphics/SVG/1.1/DTD/svg11.dtd" >
<!--
2013-9-30: Created.
-->
<svg>
<metadata>
Created by iconfont
</metadata>
<defs>

<font id="iconfont" horiz-adv-x="1024" >
  <font-face
    font-family="iconfont"
    font-weight="500"
    font-stretch="normal"
    units-per-em="1024"
    ascent="896"
    descent="-128"
  />
    <missing-glyph />
    
    <glyph glyph-name="wenjianleixingtubiao-" unicode="&#58885;" d="M545.09951 229.129659a30.319918 30.319918 0 0 1 14.4411 11.246166 30.767209 30.767209 0 0 1 5.207741 17.795779 29.553134 29.553134 0 0 1-7.316398 20.607321 31.949334 31.949334 0 0 1-18.562563 10.127939 222.047874 222.047874 0 0 1-33.227308 1.565517h-22.364534v-64.889098h25.271924q27.34863-0.031949 36.550038 3.546376zM900.024666 413.541217h-26.358201V675.525759a9.5848 9.5848 0 0 1-0.575088 3.194933 9.5848 9.5848 0 0 1-2.236454 10.000142l-204.475739 204.47574A9.5848 9.5848 0 0 1 650.021124 886.391365v-204.475739a9.5848 9.5848 0 0 1 9.584801-9.584801h194.890939v-258.789608h-747.614424V875.209098h500.007083a9.5848 9.5848 0 0 1 0 19.169601H97.29764a9.5848 9.5848 0 0 1-9.5848-9.5848V413.541217h-26.358201a27.955668 27.955668 0 0 1-27.955668-27.955667v-327.480677a27.955668 27.955668 0 0 1 27.955668-27.955668h26.358201v-52.173263a106.07179 106.07179 0 0 1 105.943993-105.975942H864.081664a9.5848 9.5848 0 0 1 9.584801 9.5848V30.149205h26.358201a27.955668 27.955668 0 0 1 27.955667 27.955668v327.480677a27.955668 27.955668 0 0 1-27.955667 27.955667zM669.190725 691.500426V863.260047L841.078144 691.500426z m67.956234-494.35205a28.33906 28.33906 0 0 1-21.693598 9.5848 76.486706 76.486706 0 0 1-20.128081-3.194933l4.82435 35.719355q17.795779-0.47924 27.156934 7.731739a27.476428 27.476428 0 0 1 9.361155 21.757497 23.642507 23.642507 0 0 1-25.112177 25.271923 26.4221 26.4221 0 0 1-19.1696-7.795637 36.645886 36.645886 0 0 1-9.584801-22.779876l-40.415908 6.869107a90.22492 90.22492 0 0 0 12.779734 33.163409 57.508802 57.508802 0 0 0 23.706406 19.489094 79.617741 79.617741 0 0 0 34.08994 7.092753q32.300777 0 51.789871-20.607321a53.73878 53.73878 0 0 0 15.974667-38.051657q0-30.096273-32.907814-47.924002a53.29149 53.29149 0 0 0 31.438145-18.882056 54.793108 54.793108 0 0 0 11.789304-35.399863 68.691069 68.691069 0 0 0-21.981142-51.310631 75.751872 75.751872 0 0 0-54.761159-21.214358q-31.054753 0-51.470378 17.859678a70.288536 70.288536 0 0 0-23.802254 46.614079l42.300919 5.143843a40.192263 40.192263 0 0 1 10.926672-24.792684 30.895006 30.895006 0 0 1 44.377626 1.725264q9.265307 10.287686 9.265307 27.763972a37.220975 37.220975 0 0 1-8.754118 26.166505z m-300.004249 131.9827h74.090506q42.109223 0 54.920906-3.418579a59.968901 59.968901 0 0 0 32.907814-22.364534q13.258974-17.252641 13.258974-44.537372a74.601696 74.601696 0 0 0-7.66784-35.431812 62.716543 62.716543 0 0 0-19.425196-22.55623 67.093602 67.093602 0 0 0-23.962-10.830824 263.613958 263.613958 0 0 0-47.924002-3.194934H483.245599v-86.263202h-46.102889z m-266.776942 0h69.138359l41.534135-156.0086 41.022945 156.0086h69.266157V100.437741h-42.939905v180.034499L302.987455 100.437741H258.545931l-45.240258 180.034499V100.437741H170.397717zM854.496864-108.830399H193.656833a86.902189 86.902189 0 0 0-86.774393 86.806341V30.149205h747.614424z"  horiz-adv-x="1024" />

    
    <glyph glyph-name="wenjianleixingtubiao-1" unicode="&#58886;" d="M886.318401 413.541217h-26.358201V675.525759a9.5848 9.5848 0 0 1-0.575088 3.194933 9.5848 9.5848 0 0 1-2.236453 10.000142l-204.47574 204.47574A9.5848 9.5848 0 0 1 636.31486 886.391365v-204.475739a9.5848 9.5848 0 0 1 9.5848-9.584801h194.89094v-258.789608h-747.614424V875.209098h500.007083a9.5848 9.5848 0 0 1 0 19.169601H83.591376a9.5848 9.5848 0 0 1-9.584801-9.5848V413.541217h-26.3582a27.955668 27.955668 0 0 1-27.955668-27.955667v-327.480677a27.955668 27.955668 0 0 1 27.955668-27.955668h26.3582v-52.173263a106.07179 106.07179 0 0 1 105.975942-105.975942h670.392883a9.5848 9.5848 0 0 1 9.5848 9.5848V30.149205h26.358201a27.955668 27.955668 0 0 1 27.955668 27.955668v327.480677a27.955668 27.955668 0 0 1-27.955668 27.955667z m-230.83394 277.959209V863.260047L827.244082 691.500426z m41.534134-405.756546a33.482902 33.482902 0 0 1-43.610841-0.383392q-8.115131-8.274878-9.361155-27.444478l-43.67474 4.377058q3.897819 36.198596 24.505139 51.949618t51.470378 15.751022q33.866294 0 53.195642-18.24307a59.873053 59.873053 0 0 0 19.425195-45.176359 79.106552 79.106552 0 0 0-5.527235-29.393387 119.714156 119.714156 0 0 0-17.540185-29.265591 280.32346 280.32346 0 0 0-28.7544-29.169742q-20.767067-19.169601-26.294303-25.271923a75.879669 75.879669 0 0 1-8.977763-12.172697h87.061937V100.437741h-153.676299a105.912043 105.912043 0 0 0 14.984238 43.770588q12.49219 20.671219 49.297823 54.825057 29.648982 27.604225 36.358342 37.44462a48.211546 48.211546 0 0 1 9.041662 26.837441q0.031949 14.664744-7.827587 22.428433z m-317.065194 43.291348h91.470944a264.284894 264.284894 0 0 0 40.479807-2.268403 59.489661 59.489661 0 0 0 23.866153-9.5848 58.722877 58.722877 0 0 0 17.540184-19.169601 51.789871 51.789871 0 0 0 7.028854-26.741593A54.313868 54.313868 0 0 0 528.230262 221.845211a60.192546 60.192546 0 0 0 32.14103-20.735118 55.080652 55.080652 0 0 0 11.246166-34.473332 67.956234 67.956234 0 0 0-7.252499-30.351867 61.151026 61.151026 0 0 0-19.808587-23.54666 65.464186 65.464186 0 0 0-30.958905-10.830824q-11.53371-1.246024-55.68769-1.565517h-77.892477z m-194.890939 0h156.775383v-38.690644H231.1973v-54.122172H326.693861v-38.690644H231.1973V100.437741H185.030512zM840.7906-108.830399H179.982517a86.902189 86.902189 0 0 0-86.806341 86.806341V30.149205h747.614424zM500.626037 140.374409a28.754401 28.754401 0 0 1 16.773401 9.137509 28.115414 28.115414 0 0 1 6.389866 19.425195 29.840678 29.840678 0 0 1-4.984096 17.476286 28.211262 28.211262 0 0 1-14.441099 10.447433q-9.5848 3.194933-40.959047 3.194933h-37.220974v-61.151026h42.748209a208.884748 208.884748 0 0 1 31.69374 1.46967zM489.986909 238.970054a30.511614 30.511614 0 0 1 18.658411 8.17903 24.153697 24.153697 0 0 1 6.773259 17.859678 25.112177 25.112177 0 0 1-5.846728 17.25264 26.485998 26.485998 0 0 1-17.412388 8.019283q-6.869107 0.766784-39.457428 0.766784h-26.517947v-52.876148h30.25602q26.997188 0.031949 33.546801 0.798733z"  horiz-adv-x="1024" />

    
    <glyph glyph-name="wenjianleixingtubiao-2" unicode="&#58888;" d="M534.875723 275.775687l-30.863057-84.857432h62.39705l-31.533993 84.857432zM909.769213 413.541217h-26.358201V675.525759a9.5848 9.5848 0 0 1-0.575088 3.194933 9.5848 9.5848 0 0 1-2.236454 10.000142l-204.475739 204.47574A9.5848 9.5848 0 0 1 659.765671 886.391365v-204.475739a9.5848 9.5848 0 0 1 9.584801-9.584801h194.890939v-258.789608h-747.614424V875.209098h500.007083a9.5848 9.5848 0 0 1 0 19.169601H107.042187a9.5848 9.5848 0 0 1-9.5848-9.5848V413.541217H71.099186a27.955668 27.955668 0 0 1-27.955668-27.955667v-327.480677A27.955668 27.955668 0 0 1 71.099186 30.149205h26.358201v-52.173263a106.07179 106.07179 0 0 1 105.975942-105.975942h670.392882a9.5848 9.5848 0 0 1 9.584801 9.5848V30.149205h26.358201a27.955668 27.955668 0 0 1 27.955667 27.955668v327.480677a27.955668 27.955668 0 0 1-27.955667 27.955667z m-230.833941 277.959209V863.260047L850.662944 691.500426z m0-362.36935l57.892194-169.331472 56.007183 169.331472h48.978329L759.862936 100.437741h-49.297823l-81.758347 228.693335z m-119.04322 0L651.426895 100.437741h-50.224354l-19.968333 51.949617h-91.438995l-18.850108-51.949617h-49.010279l89.074745 228.693335z m-373.455769 0l34.473332-157.094877L262.795192 329.131076h54.793109l40.096414-159.746672 35.144268 159.746672h46.486281L383.723423 100.437741h-48.97833l-45.559751 170.992837L243.785338 100.437741H193.720731l-54.601412 228.693335zM864.241411-108.830399H203.433329a86.902189 86.902189 0 0 0-86.806342 86.806341V30.149205h747.614424z"  horiz-adv-x="1024" />

    
    <glyph glyph-name="wenjianleixingtubiao-3" unicode="&#58889;" d="M380.205928 275.785086l-30.895725-84.859407h62.430452l-31.534727 84.859407zM949.716069 413.553822h-26.358815V675.544462a9.585023 9.585023 0 0 1-0.575101 3.195008 9.585023 9.585023 0 0 1-2.236506 10.000374l-204.480499 204.480499A9.585023 9.585023 0 0 1 699.834509 886.414977v-204.4805a9.585023 9.585023 0 0 1 9.585023-9.585023h194.895476v-258.795632h-747.631825V875.232449h500.01872a9.585023 9.585023 0 0 1 0 19.170047H147.098159a9.585023 9.585023 0 0 1-9.585023-9.585023V413.553822h-26.358815a27.956318 27.956318 0 0 1-27.956318-27.956318v-327.4883a27.956318 27.956318 0 0 1 27.956318-27.956318h26.358815v-52.174477A106.074259 106.074259 0 0 1 243.619345-128h670.280686a9.585023 9.585023 0 0 1 9.585024 9.585023V30.152886H949.716069a27.956318 27.956318 0 0 1 27.956318 27.956318v327.4883A27.956318 27.956318 0 0 1 949.716069 413.553822z m-230.711514 277.965679V863.28312L890.768175 691.519501z m-9.776723-362.377785h46.167862V100.443058h-46.167862z m-185.022902 0l57.893541-169.335413 56.008487 169.335413h48.979469L605.166427 100.443058h-49.29897l-81.76025 228.698658z m-167.86571 0h48.819719L496.759813 100.443058h-50.225523l-19.968799 51.950827h-91.441123L316.241872 100.443058H267.262402zM904.315008-108.829953H243.619345a86.904212 86.904212 0 0 0-86.808362 86.808362V30.152886h747.631825z"  horiz-adv-x="1024" />

    
    <glyph glyph-name="wenjianleixingtubiao-4" unicode="&#58891;" d="M402.605479 275.775687l-30.895006-84.857432h62.39705l-31.502044 84.857432zM768.105864 190.918255h62.39705l-31.502044 84.857432-30.895006-84.857432zM935.80792 413.541217h-26.358201V675.525759a9.5848 9.5848 0 0 1-0.575088 3.194933 9.5848 9.5848 0 0 1-2.236453 10.000142l-204.47574 204.47574A9.5848 9.5848 0 0 1 685.804379 886.391365v-204.475739a9.5848 9.5848 0 0 1 9.5848-9.584801h194.89094v-258.789608h-747.614424V875.209098h500.007082a9.5848 9.5848 0 0 1 0 19.169601H133.080895a9.5848 9.5848 0 0 1-9.584801-9.5848V413.541217h-26.3582a27.955668 27.955668 0 0 1-27.955668-27.955667v-327.480677a27.955668 27.955668 0 0 1 27.955668-27.955668h26.3582v-52.173263a106.07179 106.07179 0 0 1 105.975942-105.975942H899.864919a9.5848 9.5848 0 0 1 9.5848 9.5848V30.149205h26.358201a27.955668 27.955668 0 0 1 27.955668 27.955668v327.480677a27.955668 27.955668 0 0 1-27.955668 27.955667zM704.973979 691.500426V863.260047L876.733601 691.500426z m-158.37285-362.36935l57.892194-169.331472 56.007183 169.331472h48.94638L627.560742 100.437741h-49.297823l-81.758346 228.693335z m-167.861803 0h48.818583L519.124702 100.437741h-50.224354l-19.968334 51.949617h-91.407046L338.642912 100.437741H289.664582zM117.425721 171.109668l43.514993 4.984096q0.766784-19.648841 5.78283-27.763971a24.856582 24.856582 0 0 1 22.779875-12.332443q15.431528 0 21.853345 8.818016t6.389867 36.581988v147.733722h46.007041v-144.762434q0-28.402958-4.984096-43.67474a61.853911 61.853911 0 0 0-24.345393-31.949334q-17.636033-12.076848-46.486281-12.076849-33.866294 0-52.109365 18.945955t-18.402816 55.495994z m772.854398-279.940067H229.472036a86.902189 86.902189 0 0 0-86.806341 86.806341V30.149205h747.614424z m-24.98438 209.26814l-19.968334 51.949617h-91.407045L735.038303 100.437741h-48.978329l89.074744 228.693335h48.818583L915.552042 100.437741z"  horiz-adv-x="1024" />

    
    <glyph glyph-name="wenjianleixingtubiao-5" unicode="&#58892;" d="M964.881814 413.541217h-26.3582V675.525759a9.5848 9.5848 0 0 1-0.575088 3.194933 9.5848 9.5848 0 0 1-2.236454 10.000142l-204.47574 204.47574A9.5848 9.5848 0 0 1 714.878273 886.391365v-204.475739a9.5848 9.5848 0 0 1 9.5848-9.584801h194.89094v-258.789608h-747.614424V875.209098H671.746672a9.5848 9.5848 0 0 1 0 19.169601H162.154789a9.5848 9.5848 0 0 1-9.5848-9.5848V413.541217h-26.358201a27.955668 27.955668 0 0 1-27.955668-27.955667v-327.480677a27.955668 27.955668 0 0 1 27.955668-27.955668h26.358201v-52.173263a106.07179 106.07179 0 0 1 105.943992-105.975942H928.938813a9.5848 9.5848 0 0 1 9.584801 9.5848V30.149205h26.3582a27.955668 27.955668 0 0 1 27.955668 27.955668v327.480677a27.955668 27.955668 0 0 1-27.955668 27.955667zM734.047874 691.500426V863.260047L905.807495 691.500426z m63.451378-510.805958a38.051657 38.051657 0 0 1-16.613654 9.904294q-8.115131 2.811541-36.96538 9.968192-37.125127 9.201408-52.109364 22.620129a59.52161 59.52161 0 0 0-21.054612 46.007042 58.754826 58.754826 0 0 0 9.904294 32.684169 62.013658 62.013658 0 0 0 28.562705 23.163267 114.378617 114.378617 0 0 0 45.016612 7.955384q43.067703 0 64.825199-18.882056t22.843774-50.384101l-46.166788-2.012808q-2.971288 17.636033-12.779733 25.335822t-29.265591 7.731739q-20.128081 0-31.502043-8.274877a16.677553 16.677553 0 0 1-7.316398-14.185505 17.572134 17.572134 0 0 1 6.869107-13.89796q8.722168-7.348347 42.428716-15.303731t49.840962-16.453907a64.250111 64.250111 0 0 0 25.271923-23.259116 72.0138 72.0138 0 0 0-1.789163-73.227874 65.464186 65.464186 0 0 0-30.895006-25.559468q-19.968334-8.338776-49.777063-8.338776-43.355247 0-66.614362 20.032233t-27.763972 58.435332l44.920765 4.377059q4.057565-22.620129 16.453907-33.227308t33.450953-10.607179q22.364534 0 33.6107 9.584801a28.083465 28.083465 0 0 1 11.310064 22.07699 20.830966 20.830966 0 0 1-4.696552 13.738213zM480.242362 327.278014h46.166788v-188.309376h114.825907V100.437741h-160.992695zM250.015458 329.131076h53.962426l45.879244-73.483469 44.920764 73.483469h53.515135l-71.151167-111.087836L455.289932 100.437741h-55.68769l-50.703594 79.106551L297.93946 100.437741H242.667111l78.148072 119.330763zM919.354013-108.830399H258.513981a86.902189 86.902189 0 0 0-86.774392 86.806341V30.149205h747.614424z"  horiz-adv-x="1024" />

    
    <glyph glyph-name="wenjianleixingtubiao-6" unicode="&#58894;" d="M924.561754 413.541217h-26.3582V675.525759a9.5848 9.5848 0 0 1-0.575088 3.194933 9.5848 9.5848 0 0 1-2.236454 10.000142l-204.47574 204.47574A9.5848 9.5848 0 0 1 674.558213 886.391365v-204.475739a9.5848 9.5848 0 0 1 9.5848-9.584801h194.89094v-258.789608h-747.614424V875.209098h500.007083a9.5848 9.5848 0 0 1 0 19.169601H121.834729a9.5848 9.5848 0 0 1-9.5848-9.5848V413.541217h-26.358201a27.955668 27.955668 0 0 1-27.955668-27.955667v-327.480677a27.955668 27.955668 0 0 1 27.955668-27.955668h26.358201v-52.173263A106.07179 106.07179 0 0 1 218.066124-128h670.552629a9.5848 9.5848 0 0 1 9.584801 9.5848V30.149205h26.3582a27.955668 27.955668 0 0 1 27.955668 27.955668v327.480677a27.955668 27.955668 0 0 1-27.955668 27.955667z m-230.83394 277.959209V863.260047L865.487435 691.500426zM629.57355 180.694468a38.051657 38.051657 0 0 1-16.613653 9.904294q-8.115131 2.811541-36.96538 9.968192-37.125127 9.201408-52.109365 22.620129a59.52161 59.52161 0 0 0-21.054611 46.007042 58.754826 58.754826 0 0 0 9.904294 32.684169 62.013658 62.013658 0 0 0 28.562705 23.163267 114.378617 114.378617 0 0 0 45.016612 7.955384q43.067703 0 64.825199-18.882056t22.843774-50.384101l-46.166788-2.012808q-2.971288 17.636033-12.779734 25.335822t-29.26559 7.731739q-20.128081 0-31.502044-8.274877a16.677553 16.677553 0 0 1-7.316397-14.185505 17.572134 17.572134 0 0 1 6.869107-13.89796q8.722168-7.348347 42.428716-15.303731t49.840961-16.453907a64.250111 64.250111 0 0 0 25.271924-23.259116 72.0138 72.0138 0 0 0-1.789163-73.227874 65.464186 65.464186 0 0 0-30.895006-25.559468q-19.968334-8.338776-49.777063-8.338776-43.355247 0-66.614362 20.032233t-27.763972 58.435332l44.920764 4.377059q4.057565-22.620129 16.453907-33.227308t33.450953-10.607179q22.364534 0 33.6107 9.584801a28.083465 28.083465 0 0 1 11.310065 22.07699 20.830966 20.830966 0 0 1-4.696553 13.738213z m-275.275464-4.600704q0.766784-19.648841 5.782829-27.763971a24.856582 24.856582 0 0 1 22.779876-12.332443q15.431528 0 21.853344 8.818016t6.389867 36.581988v147.733722h46.007042v-144.762434q0-28.402958-4.984097-43.67474a61.853911 61.853911 0 0 0-24.345392-31.949334q-17.636033-12.076848-46.486282-12.076849-33.866294 0-52.109364 18.945955T310.719194 171.109668z m524.735867-284.924163H218.066124a86.902189 86.902189 0 0 0-86.806341 86.806341V30.149205h747.614423z"  horiz-adv-x="1024" />

    
    <glyph glyph-name="wenjianleixingtubiao-7" unicode="&#58895;" d="M948.395958 413.541217h-26.358201V675.525759a9.5848 9.5848 0 0 1-0.575088 3.194933 9.5848 9.5848 0 0 1-2.236453 10.000142l-204.47574 204.47574A9.5848 9.5848 0 0 1 698.392417 886.391365v-204.475739a9.5848 9.5848 0 0 1 9.5848-9.584801h194.890939v-258.789608h-747.614423V875.209098h500.007082a9.5848 9.5848 0 0 1 0 19.169601H145.668932a9.5848 9.5848 0 0 1-9.5848-9.5848V413.541217h-26.358201a27.955668 27.955668 0 0 1-27.955667-27.955667v-327.480677a27.955668 27.955668 0 0 1 27.955667-27.955668h26.358201v-52.173263a106.07179 106.07179 0 0 1 105.975942-105.975942h670.392883a9.5848 9.5848 0 0 1 9.5848 9.5848V30.149205h26.358201a27.955668 27.955668 0 0 1 27.955667 27.955668v327.480677a27.955668 27.955668 0 0 1-27.955667 27.955667z m-230.833941 277.959209V863.260047L889.321639 691.500426z m-75.240682-362.36935h181.727814v-38.690644h-67.70064V100.437741H710.085873v190.002691h-67.764538z m-212.62282 0h53.962425l45.879245-73.483469 44.920764 73.483469h53.515135L556.729068 218.07519 634.972988 100.437741h-55.68769l-50.703593 79.106551L477.718364 100.437741h-55.368196l78.148072 119.330763z m-195.625774 0h181.727813v-38.690644H348.099915V100.437741H301.933127v190.002691H234.040791zM902.868156-108.830399H242.060074a86.902189 86.902189 0 0 0-86.806341 86.806341V30.149205h747.614423z"  horiz-adv-x="1024" />

    
    <glyph glyph-name="wenjianleixingtubiao-8" unicode="&#58896;" d="M912.037615 413.541217H885.807212V675.525759a9.5848 9.5848 0 0 1-0.575088 3.194933 9.5848 9.5848 0 0 1-2.236454 10.000142l-204.475739 204.47574A9.5848 9.5848 0 0 1 662.161871 886.391365v-204.475739a9.5848 9.5848 0 0 1 9.584801-9.584801h194.890939v-258.789608H119.023188V875.209098h500.007082a9.5848 9.5848 0 0 1 0 19.169601H109.438387a9.5848 9.5848 0 0 1-9.5848-9.5848V413.541217h-26.485998a27.955668 27.955668 0 0 1-27.82787-27.955667v-327.480677a27.955668 27.955668 0 0 1 27.82787-27.955668H99.853587v-52.173263a106.07179 106.07179 0 0 1 105.816195-105.975942H876.222412a9.5848 9.5848 0 0 1 9.5848 9.5848V30.149205h26.358201a27.955668 27.955668 0 0 1 27.955667 27.955668v327.480677a27.955668 27.955668 0 0 1-28.083465 27.955667zM681.331472 691.500426V863.260047L852.931347 691.500426z m-60.703735-362.36935h97.189875q36.677836 0 53.29149-6.166222a52.556655 52.556655 0 0 0 26.581846-21.917243 65.879527 65.879527 0 0 0 10.000141-36.038849 61.055178 61.055178 0 0 0-15.143984-42.524564q-15.143984-16.773401-45.240258-21.15046a107.860953 107.860953 0 0 0 24.728785-19.1696 261.313606 261.313606 0 0 0 26.262353-36.997329l27.923718-44.729068h-55.208449l-33.387055 49.777062A322.688277 322.688277 0 0 1 713.280806 183.825503a35.463761 35.463761 0 0 1-13.89796 9.584801 76.103314 76.103314 0 0 1-23.259115 2.587896h-9.361155V100.437741H620.627737z m-165.050261 0h48.818582L595.962851 100.437741h-50.224354l-19.968334 51.949617H434.363118L415.481061 100.437741h-48.97833z m-296.393975 0H256.405325q36.645886 0 53.259541-6.166222a52.588604 52.588604 0 0 0 26.613795-21.917243 65.911477 65.911477 0 0 0 10.000142-36.038849 61.055178 61.055178 0 0 0-15.143985-42.524564q-15.143984-16.773401-45.240257-21.15046a107.829003 107.829003 0 0 0 24.728785-19.1696 261.026062 261.026062 0 0 0 26.230403-36.997329l27.923718-44.729068H309.537068l-33.387054 49.777062a322.688277 322.688277 0 0 1-24.345393 33.6107 35.463761 35.463761 0 0 1-13.89796 9.584801 76.103314 76.103314 0 0 1-23.259116 2.587896H205.28639V100.437741H159.151551zM866.637611-108.830399H205.669782A86.902189 86.902189 0 0 0 119.023188-22.024058V30.149205h747.614423zM479.443628 275.775687l-30.895006-84.857432h62.39705l-31.502044 84.857432zM281.006313 235.231982a24.888531 24.888531 0 0 1 12.93948 9.5848 29.77678 29.77678 0 0 1 4.664603 17.156793 27.444478 27.444478 0 0 1-6.166222 18.626462 28.275161 28.275161 0 0 1-17.380438 8.977763q-5.623083 0.766784-33.706547 0.766784H205.28639v-58.019991h34.217737q33.227308 0.095848 41.502186 2.907389zM742.450549 235.231982a24.888531 24.888531 0 0 1 12.93948 9.5848 29.77678 29.77678 0 0 1 4.664603 17.156793 27.444478 27.444478 0 0 1-6.166222 18.626462 28.30711 28.30711 0 0 1-17.412387 8.977763q-5.623083 0.766784-33.706548 0.766784h-35.97495v-58.019991h34.153838q33.227308 0.095848 41.502186 2.907389z"  horiz-adv-x="1024" />

    
    <glyph glyph-name="wenjianleixingtubiao-9" unicode="&#58897;" d="M551.102247 229.095522a30.31702 30.31702 0 0 1 14.439719 11.24509 30.764268 30.764268 0 0 1 5.207244 17.794078 29.550309 29.550309 0 0 1-7.315699 20.605351 31.94628 31.94628 0 0 1-18.560789 10.126971 222.026648 222.026648 0 0 1-33.224131 1.565368h-22.362396v-64.882896h25.269507q27.346016-0.031946 36.546545 3.546038zM949.664041 413.489452h-26.355682V675.44895a9.583884 9.583884 0 0 1-0.575033 3.194628 9.583884 9.583884 0 0 1-2.236239 9.999186l-204.456195 204.456194A9.583884 9.583884 0 0 1 699.588558 886.294401v-204.456195a9.583884 9.583884 0 0 1 9.583884-9.583884h194.87231v-258.76487h-747.54296V875.113202h499.959288a9.583884 9.583884 0 0 1 0 19.167769H146.917908a9.583884 9.583884 0 0 1-9.583884-9.583884V413.489452h-26.355681a27.952995 27.952995 0 0 1-27.952995-27.952996v-327.449373a27.952995 27.952995 0 0 1 27.952995-27.952995h26.355681v-52.168276a106.061651 106.061651 0 0 1 105.965812-105.965812h670.3288a9.583884 9.583884 0 0 1 9.583884 9.583884V30.134088H949.664041a27.952995 27.952995 0 0 1 27.952995 27.952995v327.449373A27.952995 27.952995 0 0 1 949.664041 413.489452z m-230.907715 277.932639V863.165294L890.499529 691.422091z m60.697933-510.75713a38.04802 38.04802 0 0 1-16.612066 9.903346q-8.050463 2.811273-36.802115 9.999186-37.121578 9.200529-52.104383 22.617967a59.51592 59.51592 0 0 0-21.052599 46.002643 58.74921 58.74921 0 0 0 9.903347 32.681045 62.00773 62.00773 0 0 0 28.559975 23.161053 114.367684 114.367684 0 0 0 45.012309 7.954624q43.063586 0 64.819003-18.880251t22.84159-50.379285l-46.162375-2.012615q-2.971004 17.634347-12.778512 25.3334t-29.262793 7.731q-20.126157 0-31.499032-8.274087a16.675958 16.675958 0 0 1-7.315699-14.184148 17.570454 17.570454 0 0 1 6.868451-13.896632q8.721335-7.347644 42.42466-15.302268t49.836197-16.452335a64.24397 64.24397 0 0 0 25.269508-23.256892 72.006916 72.006916 0 0 0-1.788992-73.220874 65.457928 65.457928 0 0 0-30.892053-25.557025q-19.966425-8.337979-49.772305-8.337979-43.351102 0-66.607994 20.030318t-27.761318 58.429747l44.916471 4.37664q4.057178-22.617966 16.452334-33.224131t33.447755-10.606165q22.362396 0 33.607487 9.583884a28.08078 28.08078 0 0 1 11.308984 22.074879 20.828975 20.828975 0 0 1-4.759996 13.704955z m-336.394332 148.422418h74.083424q42.105197 0 54.915656-3.418252a59.963168 59.963168 0 0 0 32.904669-22.362396q13.257706-17.250991 13.257706-44.533115a74.594565 74.594565 0 0 0-7.635161-35.396479 62.710548 62.710548 0 0 0-19.423338-22.554074 67.087189 67.087189 0 0 0-23.959711-10.829789 263.588759 263.588759 0 0 0-47.91942-3.194628h-29.965611v-86.254956h-46.162375z m-213.08169 0h169.570856v-38.686945H276.236451v-50.698747h114.814932v-38.527214H276.236451v-62.231355h127.785121V100.415904H230.074076z m674.066515-437.919611H243.299836a86.893883 86.893883 0 0 0-86.798044 86.798044V30.134088h747.54296z"  horiz-adv-x="1024" />

    
    <glyph glyph-name="wenjianleixingtubiao-10" unicode="&#58898;" d="M464.299644 275.775687l-30.863057-84.857432h62.39705l-31.533993 84.857432zM936.031565 413.541217h-26.3582V675.525759a9.5848 9.5848 0 0 1-0.575088 3.194933 9.5848 9.5848 0 0 1-2.236454 10.000142l-204.47574 204.47574A9.5848 9.5848 0 0 1 686.028024 886.391365v-204.475739a9.5848 9.5848 0 0 1 9.5848-9.584801h194.89094v-258.789608h-747.614424V875.209098H642.992271a9.5848 9.5848 0 0 1 0 19.169601H133.30454a9.5848 9.5848 0 0 1-9.5848-9.5848V413.541217h-26.358201a27.955668 27.955668 0 0 1-27.955668-27.955667v-327.480677a27.955668 27.955668 0 0 1 27.955668-27.955668h26.358201v-52.173263a106.07179 106.07179 0 0 1 105.975942-105.975942h670.392882a9.5848 9.5848 0 0 1 9.584801 9.5848V30.149205h26.3582a27.955668 27.955668 0 0 1 27.955668 27.955668v327.480677a27.955668 27.955668 0 0 1-27.955668 27.955667z m-230.83394 277.959209V863.260047L876.957246 691.500426z m-101.27939-362.36935h46.166788V100.437741h-46.166788z m-163.484744 0h48.818583L580.850816 100.437741h-50.256303l-19.968334 51.949617H419.34693L400.337076 100.437741h-48.978329zM890.503764-108.830399H229.695682a86.902189 86.902189 0 0 0-86.806342 86.806341V30.149205h747.614424z"  horiz-adv-x="1024" />

    
    <glyph glyph-name="wenjianleixingtubiao-11" unicode="&#58899;" d="M933.74103 413.553822h-26.358815V675.544462a9.585023 9.585023 0 0 1-0.575101 3.195008 9.585023 9.585023 0 0 1-2.236506 10.000374l-204.480499 204.480499A9.585023 9.585023 0 0 1 683.763619 886.414977v-204.4805a9.585023 9.585023 0 0 1 9.585024-9.585023h194.895476v-258.795632h-747.631826V875.232449h500.018721a9.585023 9.585023 0 0 1 0 19.170047H131.02727a9.585023 9.585023 0 0 1-9.585024-9.585023V413.553822h-26.358814a27.956318 27.956318 0 0 1-27.956318-27.956318v-327.4883a27.956318 27.956318 0 0 1 27.956318-27.956318h26.358814v-52.174477a106.074259 106.074259 0 0 1 105.978409-105.978409h670.408487a9.585023 9.585023 0 0 1 9.585023 9.585023V30.152886H933.74103a27.956318 27.956318 0 0 1 27.956318 27.956318v327.4883A27.956318 27.956318 0 0 1 933.74103 413.553822z m-230.807364 277.965679V863.28312L874.697285 691.519501z m-93.869329-362.377785h156.779033v-38.691544h-110.61117v-54.123433h95.466833v-38.691544h-95.466833V100.443058h-46.167863z m-90.482621 0h46.167863V100.443058h-46.199813z m-240.104836-50.065772a100.866396 100.866396 0 0 0 43.835507 42.589454q21.981654 11.374228 54.762434 11.374228 42.589454 0 66.552012-17.860094a80.673947 80.673947 0 0 0 30.799875-49.362871l-45.880312-8.594571a48.436318 48.436318 0 0 1-18.179594 26.614415 54.954134 54.954134 0 0 1-33.291981 9.744774q-30.256724 0-48.116818-19.170047t-17.860093-56.935039q0-40.704399 18.083744-61.088549a60.417598 60.417598 0 0 1 47.413915-20.352199 79.491794 79.491794 0 0 1 29.106521 5.687114 99.748144 99.748144 0 0 1 25.048862 13.802433v29.010671H377.809672v38.531794h99.524493v-91.121622q-14.505335-14.026084-42.046302-24.729361a153.072824 153.072824 0 0 0-55.784836-10.671326A125.180406 125.180406 0 0 0 317.104524 111.593635 95.850234 95.850234 0 0 0 276.911326 154.75819a139.11064 139.11064 0 0 0-13.419033 60.705149 131.634321 131.634321 0 0 0 14.984587 63.612605zM888.244119-108.829953H227.420655a86.904212 86.904212 0 0 0-86.808362 86.808362V30.152886h747.631826z"  horiz-adv-x="1024" />

    
    <glyph glyph-name="wenjianleixingtubiao-12" unicode="&#58900;" d="M744.527255 235.231982a24.888531 24.888531 0 0 1 12.939481 9.5848 29.77678 29.77678 0 0 1 4.664603 17.156793 27.444478 27.444478 0 0 1-6.166222 18.626462 28.30711 28.30711 0 0 1-17.412387 8.977763q-5.623083 0.766784-33.706548 0.766784H668.871232v-58.019991h34.153838q33.227308 0.095848 41.502185 2.907389zM518.869107 150.662094q7.412246 6.70936 12.076848 22.07699a149.171442 149.171442 0 0 1 4.664603 41.885578q0 26.517948-4.664603 40.703451a52.33301 52.33301 0 0 1-13.099227 22.140889 43.962284 43.962284 0 0 1-21.374104 10.766926q-9.5848 2.172555-37.92386 2.172555h-20.735118v-151.471795h34.473331a125.75258 125.75258 0 0 1 27.923719 2.172555 42.620412 42.620412 0 0 1 18.658411 9.552851zM909.960909 413.541217h-26.358201V675.525759a9.5848 9.5848 0 0 1-0.575088 3.194933 9.5848 9.5848 0 0 1-2.236454 10.000142l-204.475739 204.47574A9.5848 9.5848 0 0 1 659.957367 886.391365v-204.475739a9.5848 9.5848 0 0 1 9.584801-9.584801h194.890939v-258.789608h-747.614424V875.209098h500.007083a9.5848 9.5848 0 0 1 0 19.169601H107.233883a9.5848 9.5848 0 0 1-9.5848-9.5848V413.541217h-26.358201a27.955668 27.955668 0 0 1-27.955668-27.955667v-327.480677a27.955668 27.955668 0 0 1 27.955668-27.955668h26.358201v-52.173263a106.07179 106.07179 0 0 1 105.975942-105.975942h670.392882a9.5848 9.5848 0 0 1 9.584801 9.5848V30.149205h26.358201a27.955668 27.955668 0 0 1 27.955667 27.955668v327.480677a27.955668 27.955668 0 0 1-27.955667 27.955667z m-230.833941 277.959209V863.260047L850.886589 691.500426z m-56.454474-362.36935h97.189875q36.677836 0 53.29149-6.166222a52.556655 52.556655 0 0 0 26.581846-21.917243 65.879527 65.879527 0 0 0 10.000142-36.038849 61.055178 61.055178 0 0 0-15.143985-42.524564q-15.143984-16.773401-45.240257-21.15046a107.860953 107.860953 0 0 0 24.728785-19.1696 261.313606 261.313606 0 0 0 26.294302-36.997329l27.923718-44.729068h-55.240399l-33.387054 49.777062a322.688277 322.688277 0 0 1-24.345393 33.6107 35.463761 35.463761 0 0 1-13.897961 9.584801 76.103314 76.103314 0 0 1-23.259115 2.587896h-9.297256V100.437741h-46.198738z m-231.025636 0h84.410141q28.562705 0 43.514993-4.377059a76.486706 76.486706 0 0 0 34.473332-21.054611A99.969467 99.969467 0 0 0 575.898669 266.574279a168.788333 168.788333 0 0 0 7.476144-54.058274 150.161871 150.161871 0 0 0-7.028854-48.658836 100.832099 100.832099 0 0 0-24.505139-40.415908 81.183259 81.183259 0 0 0-32.460524-18.24307 139.65054 139.65054 0 0 0-40.831249-4.76045h-86.902189z m-209.204242-27.700073q29.489236 31.597892 77.541035 31.597892 41.949476 0 68.179879-24.792684 15.591275-14.664744 23.386913-42.109223l-45.719498-10.926672a47.253065 47.253065 0 0 1-48.211545 38.339201 52.013516 52.013516 0 0 1-41.246591-18.24307q-15.974667-18.24307-15.974667-59.138217 0-43.355247 15.591275-61.790013a50.639695 50.639695 0 0 1 40.575655-18.402817 46.262636 46.262636 0 0 1 31.789588 11.725406q13.258974 11.693456 19.1696 36.805633l44.729068-14.185504q-10.287686-37.44462-34.249686-55.623791t-60.703735-18.179172q-45.559751 0-74.88924 31.118652t-29.329489 85.113027q-0.127797 57.029562 29.361438 88.723301zM864.433107-108.830399H203.625025a86.902189 86.902189 0 0 0-86.806342 86.806341V30.149205h747.614424z"  horiz-adv-x="1024" />

    
    <glyph glyph-name="wenjianleixingtubiao-13" unicode="&#58901;" d="M576.431396 229.129659a30.319918 30.319918 0 0 1 14.441099 11.246166 30.767209 30.767209 0 0 1 5.207742 17.795779 29.553134 29.553134 0 0 1-7.316398 20.607321 31.949334 31.949334 0 0 1-18.562563 10.127939 222.047874 222.047874 0 0 1-33.227308 1.565517h-22.364534v-64.889098h25.271924q27.34863-0.031949 36.550038 3.546376zM931.324602 413.541217H904.966401V675.525759a9.5848 9.5848 0 0 1-0.575088 3.194933 9.5848 9.5848 0 0 1-2.236453 10.000142l-204.47574 204.47574A9.5848 9.5848 0 0 1 681.321061 886.391365v-204.475739a9.5848 9.5848 0 0 1 9.5848-9.584801h194.89094v-258.789608H138.182377V875.209098h500.007082a9.5848 9.5848 0 0 1 0 19.169601H128.597577a9.5848 9.5848 0 0 1-9.584801-9.5848V413.541217H92.654576A27.955668 27.955668 0 0 1 64.698908 385.58555v-327.480677A27.955668 27.955668 0 0 1 92.654576 30.149205H119.012776v-52.173263a106.07179 106.07179 0 0 1 105.975942-105.975942H895.381601a9.5848 9.5848 0 0 1 9.5848 9.5848V30.149205h26.358201a27.955668 27.955668 0 0 1 27.955668 27.955668v327.480677a27.955668 27.955668 0 0 1-27.955668 27.955667zM700.490661 691.500426V863.260047L872.250283 691.500426z m67.956235-494.35205a28.33906 28.33906 0 0 1-21.693598 9.5848 76.486706 76.486706 0 0 1-20.128081-3.194933l4.824349 35.719355q17.795779-0.47924 27.156935 7.731739a27.476428 27.476428 0 0 1 9.361155 21.757497 23.642507 23.642507 0 0 1-25.112177 25.271923 26.4221 26.4221 0 0 1-19.169601-7.795637 36.645886 36.645886 0 0 1-9.5848-22.779876l-40.415908 6.869107a90.22492 90.22492 0 0 0 12.779734 33.163409 57.508802 57.508802 0 0 0 23.706406 19.489094 79.617741 79.617741 0 0 0 34.08994 7.092753q32.300777 0 51.78987-20.607321a53.73878 53.73878 0 0 0 15.974668-38.051657q0-30.096273-32.907815-47.924002a53.29149 53.29149 0 0 0 31.438145-18.882056 54.793108 54.793108 0 0 0 11.789305-35.399863 68.691069 68.691069 0 0 0-21.981142-51.310631 75.751872 75.751872 0 0 0-54.761159-21.214358q-31.054753 0-51.470378 17.859678a70.288536 70.288536 0 0 0-23.802254 46.614079l42.428716 5.143843a40.192263 40.192263 0 0 1 10.926672-24.792684 30.895006 30.895006 0 0 1 44.377626 1.725264q9.265307 10.287686 9.265307 27.763972a37.220975 37.220975 0 0 1-8.881915 26.166505z m-300.00425 131.9827h74.090506q42.109223 0 54.920906-3.418579a59.968901 59.968901 0 0 0 32.907815-22.364534q13.258974-17.252641 13.258973-44.537372a74.601696 74.601696 0 0 0-7.635891-35.399863 62.716543 62.716543 0 0 0-19.425195-22.55623 67.093602 67.093602 0 0 0-23.962001-10.830824 263.613958 263.613958 0 0 0-47.924001-3.194933h-30.096273v-86.263203h-46.10289z m-266.776942 0h69.13836l41.534134-156.0086 41.022946 156.0086H422.531453V100.437741H379.687395v180.034499L334.287391 100.437741H289.845867l-45.240257 180.034499V100.437741H201.697654zM885.796801-108.830399H224.988718A86.902189 86.902189 0 0 0 138.182377-22.024058V30.149205h747.614424z"  horiz-adv-x="1024" />

    
    <glyph glyph-name="wenjianleixingtubiao-14" unicode="&#58902;" d="M726.507831 150.662094q7.412246 6.70936 12.076848 22.07699a149.171442 149.171442 0 0 1 4.664603 41.885578q0 26.517948-4.664603 40.703451a52.33301 52.33301 0 0 1-13.099227 22.140889 43.962284 43.962284 0 0 1-21.374105 10.766926q-9.5848 2.172555-37.923859 2.172555h-20.735118v-151.471795h34.473331a125.784529 125.784529 0 0 1 27.923719 2.172555 42.620412 42.620412 0 0 1 18.658411 9.552851zM281.198009 229.129659a30.319918 30.319918 0 0 1 14.441099 11.246166 30.767209 30.767209 0 0 1 5.239691 17.795779 29.553134 29.553134 0 0 1-7.316398 20.607321 31.949334 31.949334 0 0 1-18.594513 10.159888 222.111772 222.111772 0 0 1-33.227307 1.565518h-22.364534v-64.889098h25.271923q27.34863-0.063899 36.550039 3.514426zM897.788212 413.541217h-26.358201V675.525759a9.5848 9.5848 0 0 1-0.575088 3.194933 9.5848 9.5848 0 0 1-2.236453 10.000142l-204.47574 204.47574A9.5848 9.5848 0 0 1 647.784671 886.391365v-204.475739a9.5848 9.5848 0 0 1 9.5848-9.584801h194.89094v-258.789608h-747.614424V875.209098H604.65307a9.5848 9.5848 0 0 1 0 19.169601H95.061187a9.5848 9.5848 0 0 1-9.584801-9.5848V413.541217h-26.3582a27.955668 27.955668 0 0 1-27.955668-27.955667v-327.480677a27.955668 27.955668 0 0 1 27.955668-27.955668h26.3582v-52.173263a106.07179 106.07179 0 0 1 105.975943-105.975942H861.845211a9.5848 9.5848 0 0 1 9.5848 9.5848V30.149205h26.358201a27.955668 27.955668 0 0 1 27.955668 27.955668v327.480677a27.955668 27.955668 0 0 1-27.955668 27.955667zM666.954272 691.500426V863.260047L838.713893 691.500426z m-67.668691-362.36935h84.410142q28.562705 0 43.514993-4.377059a76.678402 76.678402 0 0 0 34.473332-21.054611A99.969467 99.969467 0 0 0 783.569342 266.574279a168.788333 168.788333 0 0 0 7.476144-54.058274 150.161871 150.161871 0 0 0-7.028853-48.658836 100.832099 100.832099 0 0 0-24.50514-40.415908 81.183259 81.183259 0 0 0-32.460524-18.24307 139.65054 139.65054 0 0 0-40.863198-4.76045h-86.90219z m-89.617882-148.436608a38.019708 38.019708 0 0 1-16.613654 9.904294q-8.115131 2.811541-36.96538 9.968192-37.125127 9.201408-52.109364 22.620129a59.52161 59.52161 0 0 0-21.054612 46.007042 58.786775 58.786775 0 0 0 9.904294 32.684169 62.013658 62.013658 0 0 0 28.562705 23.163267 114.410566 114.410566 0 0 0 45.016612 7.955384q43.067703 0 64.825199-18.882056t22.843774-50.384101l-46.166788-2.012808q-2.971288 17.636033-12.779734 25.335822t-29.26559 7.731739q-20.128081 0-31.502043-8.274877a16.645603 16.645603 0 0 1-7.316398-14.185505 17.572134 17.572134 0 0 1 6.869107-13.89796q8.722168-7.348347 42.428716-15.303731t49.840961-16.453907a64.250111 64.250111 0 0 0 25.271924-23.259116 71.98185 71.98185 0 0 0-1.789163-73.227874 65.464186 65.464186 0 0 0-30.895006-25.559468q-19.968334-8.338776-49.777063-8.338776-43.355247 0-66.614362 20.032233T374.617862 174.84774l44.920764 4.377059q4.057565-22.620129 16.453908-33.227308t33.450953-10.607179q22.364534 0 33.610699 9.584801a28.083465 28.083465 0 0 1 11.310065 22.07699 20.830966 20.830966 0 0 1-4.696552 13.642365zM173.337056 329.131076h73.994658q42.109223 0 54.920906-3.418579a59.968901 59.968901 0 0 0 32.907814-22.364534q13.258974-17.252641 13.258974-44.537372a74.633645 74.633645 0 0 0-7.635891-35.399863 62.748493 62.748493 0 0 0-19.425195-22.55623 66.901906 66.901906 0 0 0-23.962001-10.830824 263.613958 263.613958 0 0 0-47.924001-3.194933h-30.064324v-86.263203H173.337056zM852.260411-108.830399H191.452329a86.902189 86.902189 0 0 0-86.806342 86.806341V30.149205h747.614424z"  horiz-adv-x="1024" />

    
    <glyph glyph-name="wenjianleixingtubiao-15" unicode="&#58904;" d="M965.424953 413.541217h-26.358201V675.525759a9.5848 9.5848 0 0 1-0.575088 3.194933 9.5848 9.5848 0 0 1-2.236453 10.000142l-204.47574 204.47574A9.5848 9.5848 0 0 1 715.421412 886.391365v-204.475739a9.5848 9.5848 0 0 1 9.5848-9.584801h194.89094v-258.789608h-747.614424V875.209098h500.007082a9.5848 9.5848 0 0 1 0 19.169601H162.697928a9.5848 9.5848 0 0 1-9.584801-9.5848V413.541217h-26.358201a27.955668 27.955668 0 0 1-27.955667-27.955667v-327.480677a27.955668 27.955668 0 0 1 27.955667-27.955668h26.358201v-52.173263a106.07179 106.07179 0 0 1 105.975942-105.975942h670.392883a9.5848 9.5848 0 0 1 9.5848 9.5848V30.149205h26.358201a27.955668 27.955668 0 0 1 27.955668 27.955668v327.480677a27.955668 27.955668 0 0 1-27.955668 27.955667z m-230.833941 277.959209V863.260047L906.350634 691.500426z m-73.483469-359.49391l57.892194-169.331472 56.007183 169.331472h48.97833L742.035207 103.313181h-49.201975L611.042936 332.006516z m-196.871798-1.885011h46.166788V141.971875h114.825908v-38.658694h-160.960747z m-196.105014 1.885011h156.775384v-38.690644h-110.544697v-54.122172H409.76213v-38.690644H314.361418v-97.189875H268.19463z m651.766421-440.900814H259.089069a86.902189 86.902189 0 0 0-86.806341 86.806341V30.149205h747.614424z"  horiz-adv-x="1024" />

    
    <glyph glyph-name="wenjianleixingtubiao-16" unicode="&#58905;" d="M941.335155 413.541217h-26.358201V675.525759a9.5848 9.5848 0 0 1-0.575088 3.194933 9.5848 9.5848 0 0 1-2.236453 10.000142l-204.47574 204.47574A9.5848 9.5848 0 0 1 691.331614 886.391365v-204.475739a9.5848 9.5848 0 0 1 9.5848-9.584801h194.89094v-258.789608h-747.614424V875.209098h500.007082a9.5848 9.5848 0 0 1 0 19.169601H138.608129a9.5848 9.5848 0 0 1-9.5848-9.5848V413.541217h-26.358201a27.955668 27.955668 0 0 1-27.955667-27.955667v-327.480677a27.955668 27.955668 0 0 1 27.955667-27.955668h26.358201v-52.173263a106.07179 106.07179 0 0 1 105.943993-105.975942h670.424832a9.5848 9.5848 0 0 1 9.5848 9.5848V30.149205h26.358201a27.955668 27.955668 0 0 1 27.955667 27.955668v327.480677a27.955668 27.955668 0 0 1-27.955667 27.955667z m-230.833941 277.959209V863.260047L882.228886 691.500426z m-80.576221-353.104043l34.473332-157.094877 41.821678 157.094877H761.204808l40.096415-159.746672 35.144267 159.746672h46.486282l-55.655741-228.693335h-48.978329l-45.559751 170.992837-45.400004-170.992837h-50.064607l-54.601412 228.693335z m-172.526405 0h48.818582l91.726539-228.693335h-50.224353l-19.968334 51.949617h-91.407046l-18.882056-51.949617h-48.97833z m-296.393975 0h97.349622q36.645886 0 53.25954-6.166222a52.556655 52.556655 0 0 0 26.613795-21.917243 65.911477 65.911477 0 0 0 10.000142-36.038849 61.055178 61.055178 0 0 0-15.143984-42.492615q-15.143984-16.773401-45.240258-21.150459a107.829003 107.829003 0 0 0 24.728785-19.169601 260.930214 260.930214 0 0 0 26.294302-37.125126l27.923718-44.729068H311.549876l-33.387054 49.840961A322.879973 322.879973 0 0 1 253.817429 193.09081a35.463761 35.463761 0 0 1-13.89796 9.5848 76.103314 76.103314 0 0 1-23.259116 2.587897h-9.329205v-95.560459H161.16436z m734.642994-447.290681H234.967322a86.902189 86.902189 0 0 0-86.806342 86.806341V30.149205h747.614424zM481.424487 285.040994l-30.895006-84.857432h62.39705l-31.502044 84.857432zM282.987171 244.497289a24.888531 24.888531 0 0 1 12.939481 9.5848 29.77678 29.77678 0 0 1 4.664603 17.156793 27.444478 27.444478 0 0 1-6.166222 18.626462 28.275161 28.275161 0 0 1-17.380438 8.977763q-5.623083 0.766784-33.706548 0.766784H207.331148v-58.019991h34.153838q33.227308 0.095848 41.502185 2.907389z"  horiz-adv-x="1024" />

    
    <glyph glyph-name="wenjianleixingtubiao-17" unicode="&#58906;" d="M940.344726 413.541217h-26.358201V675.525759a9.5848 9.5848 0 0 1-0.575088 3.194933 9.5848 9.5848 0 0 1-2.236454 10.000142l-204.475739 204.47574A9.5848 9.5848 0 0 1 690.341184 886.391365v-204.475739a9.5848 9.5848 0 0 1 9.584801-9.584801h194.890939v-258.789608h-747.614424V875.209098h500.007083a9.5848 9.5848 0 0 1 0 19.169601H137.6177a9.5848 9.5848 0 0 1-9.5848-9.5848V413.541217h-26.358201a27.955668 27.955668 0 0 1-27.955668-27.955667v-327.480677a27.955668 27.955668 0 0 1 27.955668-27.955668h26.358201v-52.173263A106.07179 106.07179 0 0 1 234.040791-128h670.360933a9.5848 9.5848 0 0 1 9.584801 9.5848V30.149205h26.358201a27.955668 27.955668 0 0 1 27.955667 27.955668v327.480677a27.955668 27.955668 0 0 1-27.955667 27.955667z m-230.833941 277.959209V863.260047L881.270406 691.500426z m-190.322185-367.417345h64.537656l38.754542-145.688965 38.339201 145.688965h64.665453v-213.549351h-40.096415v168.085448L642.992271 110.53373h-41.534135l-42.23702 168.117398v-168.117398h-40.032516z m-196.967646 0h169.714864v-36.134697h-63.227733v-177.446603h-43.131601v177.446603H322.220954zM122.218121 110.53373V324.083081h43.131601v-84.058699h84.47404V324.083081h43.131602v-213.549351h-43.131602v93.355955H165.317773v-93.387904z m772.598803-219.364129H234.040791a86.902189 86.902189 0 0 0-86.806341 86.806341V30.149205h747.614423z m24.98438 219.364129h-150.353568v211.824087h43.131602v-175.721339h107.221966z"  horiz-adv-x="1024" />

    
    <glyph glyph-name="wenjianleixingtubiao-18" unicode="&#58907;" d="M422.541864 232.803833a28.30711 28.30711 0 0 1 13.482619 10.479381 28.754401 28.754401 0 0 1 4.888248 16.613654 27.604225 27.604225 0 0 1-6.837157 19.169601 29.840678 29.840678 0 0 1-17.348489 9.5848 207.383129 207.383129 0 0 1-31.022804 1.46967h-20.990712v-60.703736h23.610558q25.495569 0.063899 34.217737 3.38663zM838.905589 242.005241a28.498806 28.498806 0 0 1 17.412387 7.635891 22.55623 22.55623 0 0 1 6.389867 16.677553 23.418862 23.418862 0 0 1-5.463336 15.974667 24.728785 24.728785 0 0 1-16.230262 7.508093q-6.389867 0.734835-36.869532 0.734835h-24.760734v-49.393671h28.275161q25.112177 0.127797 31.246449 0.862632zM938.172171 413.541217h-26.358201V675.525759a9.5848 9.5848 0 0 1-0.575088 3.194933 9.5848 9.5848 0 0 1-2.236453 10.000142l-204.47574 204.47574A9.5848 9.5848 0 0 1 688.16863 886.391365v-204.475739a9.5848 9.5848 0 0 1 9.5848-9.584801h194.890939v-258.789608h-747.614423V875.209098h500.007082a9.5848 9.5848 0 0 1 0 19.169601H135.445145a9.5848 9.5848 0 0 1-9.5848-9.5848V413.541217h-26.358201a27.955668 27.955668 0 0 1-27.955667-27.955667v-327.480677a27.955668 27.955668 0 0 1 27.955667-27.955668h26.358201v-52.173263a106.07179 106.07179 0 0 1 105.975942-105.975942h670.392883a9.5848 9.5848 0 0 1 9.5848 9.5848V30.149205h26.358201a27.955668 27.955668 0 0 1 27.955667 27.955668v327.480677a27.955668 27.955668 0 0 1-27.955667 27.955667z m-230.833941 277.959209V863.260047L879.097852 691.500426zM520.306827 326.191737h43.131601v-115.65659a239.620008 239.620008 0 0 1 1.597467-35.687407 34.56918 34.56918 0 0 1 13.195075-21.054611q10.415483-7.955384 28.466857-7.955384t27.668124 7.508093a29.648982 29.648982 0 0 1 11.214216 18.434766 240.418741 240.418741 0 0 1 1.885011 36.262495v118.212537h43.131601v-112.174113q0-38.339201-3.482477-54.313869a60.128647 60.128647 0 0 0-12.779734-26.805491 65.144693 65.144693 0 0 0-25.144126-17.412387q-15.719072-6.389867-41.086844-6.389867-30.607462 0-46.390434 7.060803a66.326818 66.326818 0 0 0-24.984379 18.370867 58.818725 58.818725 0 0 0-12.076849 23.674457q-4.217312 18.370867-4.217312 54.313868z m-198.69291 0h69.202258q39.329631 0 51.278681-3.194933a56.007183 56.007183 0 0 0 30.73526-20.894865q12.396342-15.974667 12.396342-41.534135a69.681498 69.681498 0 0 0-7.124702-33.067561 58.595079 58.595079 0 0 0-18.147222-21.054611 62.492898 62.492898 0 0 0-22.364534-10.127939 246.009874 246.009874 0 0 0-44.729068-3.194933h-28.115414v-80.544272H321.581967z m-199.012404-213.549351v213.549351h158.340901v-36.134697H165.733114v-47.348914h107.221966v-35.97495H165.733114v-58.115839H285.159726v-35.974951z m769.978958-221.472785H231.836287a86.902189 86.902189 0 0 0-86.806341 86.806341V30.149205h747.614423z m15.655174 255.051536a57.09346 57.09346 0 0 0-18.498665-22.013092 61.119077 61.119077 0 0 0-28.914148-10.127939q-10.766926-1.182125-52.013516-1.469669h-72.620837v213.5813h85.368621a246.744709 246.744709 0 0 0 37.796063-2.108656 55.559892 55.559892 0 0 0 22.364534-8.818016 54.825058 54.825058 0 0 0 16.390009-17.859678 48.339343 48.339343 0 0 0 6.549613-24.98438 50.639695 50.639695 0 0 0-30.000425-46.326534 56.230828 56.230828 0 0 0 30.000425-19.361297 51.438428 51.438428 0 0 0 10.479382-32.204929 63.483327 63.483327 0 0 0-6.964955-28.30711zM852.388208 202.67561q-8.818016 3.194933-38.339201 3.194934h-34.824775v-57.093461h39.904719a195.082636 195.082636 0 0 1 29.585084 1.309923 26.741593 26.741593 0 0 1 15.655174 8.530472 26.230403 26.230403 0 0 1 6.038424 18.147222 27.85982 27.85982 0 0 1-4.664603 16.32611 26.358201 26.358201 0 0 1-13.354822 9.5848z"  horiz-adv-x="1024" />

    
    <glyph glyph-name="wenjianleixingtubiao-19" unicode="&#58908;" d="M936.095464 413.541217h-26.358201V675.525759a9.5848 9.5848 0 0 1-0.575088 3.194933 9.5848 9.5848 0 0 1-2.236453 10.000142l-204.47574 204.47574A9.5848 9.5848 0 0 1 686.091923 886.391365v-204.475739a9.5848 9.5848 0 0 1 9.5848-9.584801h194.89094v-258.789608h-747.614424V875.209098H642.992271a9.5848 9.5848 0 0 1 0 19.169601H133.368439a9.5848 9.5848 0 0 1-9.584801-9.5848V413.541217h-26.3582a27.955668 27.955668 0 0 1-27.955668-27.955667v-327.480677a27.955668 27.955668 0 0 1 27.955668-27.955668h26.3582v-52.173263a106.07179 106.07179 0 0 1 105.975942-105.975942h670.392883a9.5848 9.5848 0 0 1 9.5848 9.5848V30.149205h26.358201a27.955668 27.955668 0 0 1 27.955668 27.955668v327.480677a27.955668 27.955668 0 0 1-27.955668 27.955667z m-230.833941 277.959209V863.260047L877.021145 691.500426zM454.810692 322.006374q21.150459 20.351726 64.825199 20.351726 33.994092 0 54.920906-14.185504 28.402958-19.169601 28.402958-51.118935a49.361722 49.361722 0 0 0-7.316398-25.559468q-7.348347-12.332443-29.936526-30.096273-15.751022-12.49219-19.904435-20.032232a41.022945 41.022945 0 0 1-4.121464-19.744689h-59.329914v5.942576a73.195925 73.195925 0 0 0 3.418579 24.569038 54.313868 54.313868 0 0 0 10.223786 17.252641 314.605095 314.605095 0 0 0 30.511615 27.444478q12.779734 10.287686 12.779734 18.882057a17.412387 17.412387 0 0 1-5.079945 13.322872 21.757497 21.757497 0 0 1-15.367629 4.760451 24.696835 24.696835 0 0 1-18.338918-7.316398q-7.252499-7.348347-9.297257-25.559467l-60.543988 7.476144q3.035187 33.323156 24.153697 53.610983z m89.138642-156.232245v-56.007183h-63.611124v56.007183z m346.618329-274.604528H229.75958a86.902189 86.902189 0 0 0-86.806341 86.806341V30.149205h747.614424z"  horiz-adv-x="1024" />

    
    <glyph glyph-name="wenjianleixingtubiao-20" unicode="&#58909;" d="M932.93248 413.541217h-26.358201V675.525759a9.5848 9.5848 0 0 1-0.575088 3.194933 9.5848 9.5848 0 0 1-2.236453 10.000142l-204.47574 204.47574A9.5848 9.5848 0 0 1 682.928939 886.391365v-204.475739a9.5848 9.5848 0 0 1 9.5848-9.584801h194.89094v-258.789608h-747.614424V875.209098H639.797337a9.5848 9.5848 0 0 1 0 19.169601H130.205455a9.5848 9.5848 0 0 1-9.584801-9.5848V413.541217h-26.358201a27.955668 27.955668 0 0 1-27.955667-27.955667v-327.480677a27.955668 27.955668 0 0 1 27.955667-27.955668h26.358201v-52.173263a106.07179 106.07179 0 0 1 105.975942-105.975942H896.989479a9.5848 9.5848 0 0 1 9.5848 9.5848V30.149205h26.358201a27.955668 27.955668 0 0 1 27.955668 27.955668v327.480677a27.955668 27.955668 0 0 1-27.955668 27.955667zM702.098539 691.500426V863.260047L873.858161 691.500426z m12.204646-356.298977h46.166788v-228.693335h-46.166788zM625.931326 186.700943a38.051657 38.051657 0 0 1-16.613654 9.904294q-8.115131 2.811541-36.965379 9.968192-37.125127 9.201408-52.109365 22.620129a59.52161 59.52161 0 0 0-21.054611 46.007041 58.786775 58.786775 0 0 0 9.904294 32.684169 62.013658 62.013658 0 0 0 28.562704 23.163268 114.410566 114.410566 0 0 0 45.016613 7.955384q43.067703 0 64.825199-18.882056t22.811825-50.352151l-46.166788-2.012808q-2.971288 17.636033-12.779734 25.335822t-29.073894 7.795637q-20.128081 0-31.502044-8.274877a16.645603 16.645603 0 0 1-7.316398-14.185505 17.572134 17.572134 0 0 1 6.869107-13.89796q8.722168-7.348347 42.428716-15.303731t49.840962-16.453908a64.250111 64.250111 0 0 0 25.271923-23.259115 71.98185 71.98185 0 0 0-1.789162-73.227874 65.464186 65.464186 0 0 0-30.895007-25.559468q-19.968334-8.338776-49.777063-8.338776-43.355247 0-66.614362 20.032233t-27.763971 58.435332l44.920764 4.377059q4.057565-22.620129 16.453907-33.227308t33.450953-10.607179q22.364534 0 33.6107 9.584801a28.083465 28.083465 0 0 1 11.310064 22.07699 20.830966 20.830966 0 0 1-4.856299 13.642365zM235.861903 335.201449H304.968313l41.534135-156.008599 40.895148 156.008599h69.266157v-228.693335h-42.812108v180.034499l-45.400004-180.034499h-44.441524L278.769859 286.542613v-180.034499H235.861903z m651.542776-444.095747H226.596596a86.902189 86.902189 0 0 0-86.806341 86.87024V30.149205h747.614424z"  horiz-adv-x="1024" />

    
    <glyph glyph-name="wenjianleixingtubiao-21" unicode="&#58910;" d="M688.488123 232.324593a30.287969 30.287969 0 0 1 14.441099 11.246165 30.73526 30.73526 0 0 1 5.239691 17.79578 29.553134 29.553134 0 0 1-7.316398 20.60732 31.949334 31.949334 0 0 1-18.562563 10.127939 222.175671 222.175671 0 0 1-33.227308 1.565518h-22.364534v-64.889098h25.271924q27.316681-0.031949 36.518089 3.546376zM938.331918 413.541217h-26.358201V675.525759a9.5848 9.5848 0 0 1-0.575088 3.194933 9.5848 9.5848 0 0 1-2.236454 10.000142l-204.47574 204.47574A9.5848 9.5848 0 0 1 688.328376 886.391365v-204.475739a9.5848 9.5848 0 0 1 9.584801-9.584801h194.890939v-258.789608h-747.614424V875.209098h500.007083a9.5848 9.5848 0 0 1 0 19.169601H135.604892a9.5848 9.5848 0 0 1-9.5848-9.5848V413.541217h-26.358201a27.955668 27.955668 0 0 1-27.955668-27.955667v-327.480677a27.955668 27.955668 0 0 1 27.955668-27.955668h26.358201v-52.173263a106.07179 106.07179 0 0 1 105.975942-105.975942h670.392882a9.5848 9.5848 0 0 1 9.584801 9.5848V30.149205h26.358201a27.955668 27.955668 0 0 1 27.955667 27.955668v327.480677a27.955668 27.955668 0 0 1-27.955667 27.955667z m-230.833941 277.959209V863.260047L879.257598 691.500426z m-126.966655-359.174417h74.090507q42.109223 0 54.920905-3.418579a59.968901 59.968901 0 0 0 32.907815-22.364534q13.258974-17.252641 13.258973-44.537372a74.665594 74.665594 0 0 0-7.635891-35.399862 62.716543 62.716543 0 0 0-19.425195-22.55623 66.869957 66.869957 0 0 0-23.930051-10.830824 263.613958 263.613958 0 0 0-47.924002-3.194934h-30.096273v-86.263203h-46.166788z m-90.161021 0h46.166788V103.632674h-46.166788zM276.789001 145.166809L396.982396 293.635365H290.367468v38.690644H457.686132v-35.879102l-125.27334-154.283336h130.097689V103.632674H276.789001z m616.015115-253.997208H231.996034a86.902189 86.902189 0 0 0-86.806342 86.806341V30.149205h747.614424z"  horiz-adv-x="1024" />

    
    <glyph glyph-name="wenjianleixingtubiao-22" unicode="&#58911;" d="M330.399984 225.934726a30.319918 30.319918 0 0 1 14.441099 11.246166 30.767209 30.767209 0 0 1 5.207741 17.795779 29.553134 29.553134 0 0 1-7.316397 20.60732 31.949334 31.949334 0 0 1-18.562564 10.127939 222.047874 222.047874 0 0 1-33.227307 1.565518h-22.364534v-64.889098h25.271923q27.34863-0.031949 36.550039 3.546376zM562.607746 147.467161q7.412246 6.70936 12.076848 22.07699a149.171442 149.171442 0 0 1 4.664603 41.885577q0 26.517948-4.664603 40.703452a52.33301 52.33301 0 0 1-13.099227 22.140889 43.962284 43.962284 0 0 1-21.374105 10.766925q-9.5848 2.172555-37.92386 2.172555h-20.735118v-151.471794h34.473332a125.75258 125.75258 0 0 1 27.923718 2.172555 42.620412 42.620412 0 0 1 18.658412 9.552851zM938.044374 413.541217h-26.358201V675.525759a9.5848 9.5848 0 0 1-0.575088 3.194933 9.5848 9.5848 0 0 1-2.236454 10.000142l-204.47574 204.47574A9.5848 9.5848 0 0 1 688.040832 886.391365v-204.475739a9.5848 9.5848 0 0 1 9.584801-9.584801h194.890939v-258.789608h-747.614424V875.209098h500.007083a9.5848 9.5848 0 0 1 0 19.169601H135.317348a9.5848 9.5848 0 0 1-9.5848-9.5848V413.541217h-26.358201a27.955668 27.955668 0 0 1-27.955668-27.955667v-327.480677a27.955668 27.955668 0 0 1 27.955668-27.955668h26.358201v-52.173263a106.07179 106.07179 0 0 1 105.943992-105.975942H902.101372a9.5848 9.5848 0 0 1 9.584801 9.5848V30.149205h26.358201a27.955668 27.955668 0 0 1 27.955667 27.955668v327.480677a27.955668 27.955668 0 0 1-27.955667 27.955667zM707.210433 691.500426V863.260047L878.970054 691.500426z m-40.607604-365.564284h156.775384v-38.690644h-110.608596v-54.122172h95.464611v-38.690644h-95.464611V97.242807h-46.166788z m-231.185383 0h84.410141q28.562705 0 43.514993-4.377058a76.486706 76.486706 0 0 0 34.473332-21.054612 99.969467 99.969467 0 0 0 21.853345-37.061228 168.788333 168.788333 0 0 0 7.348347-54.026324 150.161871 150.161871 0 0 0-7.028854-48.658836 100.832099 100.832099 0 0 0-24.505139-40.415908 81.183259 81.183259 0 0 0-32.364676-18.275019 139.65054 139.65054 0 0 0-40.831249-4.82435H435.321598z m-212.942314 0h74.090507q42.109223 0 54.920905-3.418578a59.968901 59.968901 0 0 0 32.907815-22.364534q13.258974-17.252641 13.258973-44.537373a74.601696 74.601696 0 0 0-7.635891-35.399862 62.716543 62.716543 0 0 0-19.425195-22.55623 67.093602 67.093602 0 0 0-23.962001-10.830824 263.613958 263.613958 0 0 0-47.924001-3.194934h-30.064324v-86.263203H222.443183zM892.516572-108.830399H231.67654a86.902189 86.902189 0 0 0-86.774392 86.806341V30.149205h747.614424z"  horiz-adv-x="1024" />

    
    <glyph glyph-name="wenjianleixingtubiao-23" unicode="&#58912;" d="M316.278378 150.662094q7.412246 6.70936 12.076848 22.07699a149.171442 149.171442 0 0 1 4.728502 41.885578q0 26.517948-4.664603 40.703451a52.33301 52.33301 0 0 1-13.099227 22.140889 43.962284 43.962284 0 0 1-21.374105 10.766926q-9.5848 2.172555-37.92386 2.172555h-20.767067v-151.471795h34.473332a125.75258 125.75258 0 0 1 27.923718 2.172555 42.620412 42.620412 0 0 1 18.626462 9.552851zM521.5848 135.99735a57.956093 57.956093 0 0 1 45.336106 19.904435q17.699931 19.904435 17.699931 59.681357t-17.220691 58.658977q-17.252641 19.329347-45.783396 19.329348t-46.007042-19.584942q-17.476286-19.584942-17.476286-59.04237 0-38.850391 17.955526-58.882623a58.467282 58.467282 0 0 1 45.495852-20.064182zM940.280827 413.541217h-26.358201V675.525759a9.5848 9.5848 0 0 1-0.575088 3.194933 9.5848 9.5848 0 0 1-2.236453 10.000142l-204.47574 204.47574A9.5848 9.5848 0 0 1 690.277286 886.391365v-204.475739a9.5848 9.5848 0 0 1 9.5848-9.584801h194.890939v-258.789608h-747.614423V875.209098h500.007082a9.5848 9.5848 0 0 1 0 19.169601H137.553801a9.5848 9.5848 0 0 1-9.5848-9.5848V413.541217h-26.358201a27.955668 27.955668 0 0 1-27.955667-27.955667v-327.480677a27.955668 27.955668 0 0 1 27.955667-27.955668h26.358201v-52.173263A106.07179 106.07179 0 0 1 234.040791-128h670.297035a9.5848 9.5848 0 0 1 9.5848 9.5848V30.149205h26.358201a27.955668 27.955668 0 0 1 27.955667 27.955668v327.480677a27.955668 27.955668 0 0 1-27.955667 27.955667zM709.446886 691.500426V863.260047L881.206508 691.500426z m-19.616891-390.037474q29.489236 31.597892 77.541034 31.597892 41.949476 0 68.17988-24.792684 15.591275-14.664744 23.386913-42.109222l-45.719498-10.926673a47.253065 47.253065 0 0 1-48.211545 38.339202 52.013516 52.013516 0 0 1-41.246591-18.24307q-15.974667-18.24307-15.974667-59.138218 0-43.355247 15.591275-61.790013a50.639695 50.639695 0 0 1 40.575655-18.402816 46.262636 46.262636 0 0 1 31.66179 11.693456q13.258974 11.693456 19.169601 36.805633l44.729068-14.185504q-10.287686-37.44462-34.249687-55.623791t-60.703735-18.179172q-45.559751 0-74.88924 31.118652t-29.329489 85.113027q0 57.029562 29.489236 88.723301z m-268.78975-29.393387a107.605358 107.605358 0 0 0 21.310206 31.342297 89.010845 89.010845 0 0 0 29.553134 20.60732 125.560884 125.560884 0 0 0 49.297823 9.041662q50.543847 0 80.895715-31.342297t30.351867-87.189733q0-55.368196-30.096272-86.646595t-80.512323-31.278399q-51.118935 0-81.11936 31.118652t-30.096273 85.720064q-0.031949 34.888673 10.415483 58.595079z m-231.984117 57.061511h84.410142q28.562705 0 43.514993-4.377059a76.486706 76.486706 0 0 0 34.473332-21.054611 99.969467 99.969467 0 0 0 21.853345-37.061228 168.788333 168.788333 0 0 0 7.476144-54.058274 150.161871 150.161871 0 0 0-7.028854-48.658836 100.832099 100.832099 0 0 0-24.505139-40.415908 81.183259 81.183259 0 0 0-32.460524-18.24307A139.65054 139.65054 0 0 0 275.958318 100.437741h-86.90219zM894.753025-108.830399H234.040791a86.902189 86.902189 0 0 0-86.902189 86.806341V30.149205h747.614423z"  horiz-adv-x="1024" />

    
    <glyph glyph-name="wenjianleixingtubiao-24" unicode="&#58913;" d="M925.072944 413.541217H898.586946V675.525759a9.5848 9.5848 0 0 1-0.575088 3.194933 9.5848 9.5848 0 0 1-2.236454 10.000142l-204.47574 204.47574A9.5848 9.5848 0 0 1 674.941605 886.391365v-204.475739a9.5848 9.5848 0 0 1 9.5848-9.584801h194.89094v-258.789608H131.802921V875.209098h500.007083a9.5848 9.5848 0 0 1 0 19.169601H122.218121a9.5848 9.5848 0 0 1-9.5848-9.5848V413.541217h-26.230404a27.955668 27.955668 0 0 1-28.083465-27.955667v-327.480677a27.955668 27.955668 0 0 1 28.083465-27.955668H112.633321v-52.173263a106.07179 106.07179 0 0 1 106.07179-105.975942H889.002145a9.5848 9.5848 0 0 1 9.584801 9.5848V30.149205h26.3582a27.955668 27.955668 0 0 1 27.955668 27.955668v327.480677a27.955668 27.955668 0 0 1-27.82787 27.955667zM694.111206 691.500426V863.260047L865.966675 691.500426z m-80.033083-409.239024a100.895998 100.895998 0 0 0 43.834487 42.588463q21.981142 11.373963 54.761159 11.373963 42.588463 0 66.550463-17.859678a80.672069 80.672069 0 0 0 30.799159-49.361721l-45.879244-8.594371a48.435191 48.435191 0 0 1-18.179172 26.613795 54.952855 54.952855 0 0 1-33.323155 9.744547q-30.25602 0-48.115698-19.1696t-17.859678-56.933714q0-40.703452 18.083324-61.087128a60.416191 60.416191 0 0 1 47.412812-20.351726 79.521893 79.521893 0 0 1 29.105843 5.686982 99.713872 99.713872 0 0 1 25.048278 13.802112v29.009996h-52.876148v38.530897h99.522177v-91.119501q-14.504998-14.025758-42.045324-24.728785a153.069261 153.069261 0 0 0-55.783538-10.671078 125.177492 125.177492 0 0 0-62.556797 15.048137A95.848003 95.848003 0 0 0 612.512606 157.946542a139.1713 139.1713 0 0 0-13.418721 60.927381 131.631258 131.631258 0 0 0 14.984238 63.387479z m-220.130913 50.064607h74.090506q42.109223 0 54.920906-3.418579a59.968901 59.968901 0 0 0 32.907814-22.364534q13.258974-17.252641 13.258974-44.537372a74.601696 74.601696 0 0 0-7.635891-35.399862 62.716543 62.716543 0 0 0-19.425195-22.55623 67.093602 67.093602 0 0 0-23.962001-10.830824 263.613958 263.613958 0 0 0-47.924002-3.194934h-30.064323v-86.263203h-46.166788z m-151.951035-153.037311q0.766784-19.648841 5.78283-27.763972a24.856582 24.856582 0 0 1 22.779875-12.332443q15.431528 0 21.853345 8.818016t6.389867 36.581988v147.733722h46.007041v-144.762434q0-28.402958-4.984096-43.67474a61.853911 61.853911 0 0 0-24.345393-31.949334q-17.636033-12.076848-46.486281-12.076848-33.866294 0-52.109364 18.945955t-18.402817 55.623791zM879.417345-108.830399H218.705111A86.902189 86.902189 0 0 0 131.802921-22.024058V30.149205h747.614424zM501.90401 232.324593a30.319918 30.319918 0 0 1 14.441099 11.246165 30.767209 30.767209 0 0 1 5.207742 17.79578 29.553134 29.553134 0 0 1-7.316398 20.60732 31.949334 31.949334 0 0 1-18.562563 10.127939 222.047874 222.047874 0 0 1-33.227308 1.565518h-22.364534v-64.889098h25.271924q27.476428-0.031949 36.550038 3.546376z"  horiz-adv-x="1024" />

    
    <glyph glyph-name="wenjianleixingtubiao-25" unicode="&#58914;" d="M417.302173 278.651128l-30.895006-84.857432h62.39705l-31.502044 84.857432zM937.660981 413.541217H911.366679V675.525759a9.5848 9.5848 0 0 1-0.575088 3.194933 9.5848 9.5848 0 0 1-2.236453 10.000142l-204.47574 204.47574A9.5848 9.5848 0 0 1 687.721339 886.391365v-204.475739a9.5848 9.5848 0 0 1 9.5848-9.584801h194.89094v-258.789608H144.582655V875.209098h500.007083a9.5848 9.5848 0 0 1 0 19.169601H134.997855a9.5848 9.5848 0 0 1-9.584801-9.5848V413.541217h-26.422099a27.955668 27.955668 0 0 1-27.891769-27.955667v-327.480677a27.955668 27.955668 0 0 1 27.891769-27.955668H125.413054v-52.173263a106.07179 106.07179 0 0 1 105.880094-105.975942H901.781879a9.5848 9.5848 0 0 1 9.5848 9.5848V30.149205h26.358201a27.955668 27.955668 0 0 1 27.955668 27.955668v327.480677a27.955668 27.955668 0 0 1-28.019567 27.955667zM706.89094 691.500426V863.260047L878.586662 691.500426z m-148.564405-359.49391h169.587067v-38.690644H604.65307v-50.703594h114.825907v-38.530897H604.65307V141.971875h127.797337v-38.658694h-174.123872z m-164.890515 0h48.818583l91.566792-228.693335h-50.224353l-19.968334 51.949617h-91.407046l-18.882056-51.949617H304.329327zM892.197079-108.830399H231.293148A86.902189 86.902189 0 0 0 144.582655-22.024058V30.149205h747.614424z"  horiz-adv-x="1024" />

    
    <glyph glyph-name="wenjianleixingtubiao-26" unicode="&#58915;" d="M271.357614 229.129659a30.319918 30.319918 0 0 1 14.441099 11.246166 30.767209 30.767209 0 0 1 5.207741 17.795779 29.553134 29.553134 0 0 1-7.316397 20.607321 31.949334 31.949334 0 0 1-18.562563 10.159888 222.047874 222.047874 0 0 1-33.227308 1.565518h-22.364534v-64.889098h25.271923q27.34863-0.063899 36.550039 3.514426zM907.628607 413.541217h-26.358201V675.525759a9.5848 9.5848 0 0 1-0.575088 3.194933 9.5848 9.5848 0 0 1-2.236453 10.000142l-204.47574 204.47574A9.5848 9.5848 0 0 1 657.625066 886.391365v-204.475739a9.5848 9.5848 0 0 1 9.5848-9.584801h194.89094v-258.789608h-747.614424V875.209098h500.007083a9.5848 9.5848 0 0 1 0 19.169601H104.901582a9.5848 9.5848 0 0 1-9.584801-9.5848V413.541217h-26.3582a27.955668 27.955668 0 0 1-27.955668-27.955667v-327.480677a27.955668 27.955668 0 0 1 27.955668-27.955668h26.3582v-52.173263a106.07179 106.07179 0 0 1 105.943993-105.975942h670.424832a9.5848 9.5848 0 0 1 9.5848 9.5848V30.149205h26.358201a27.955668 27.955668 0 0 1 27.955668 27.955668v327.480677a27.955668 27.955668 0 0 1-27.955668 27.955667z m-230.83394 277.959209V863.260047L848.554288 691.500426zM614.23787 279.066469a100.895998 100.895998 0 0 0 43.834487 42.588463q21.981142 11.373963 54.761159 11.373963 42.588463 0 66.550463-17.859678a80.672069 80.672069 0 0 0 30.799158-49.361722L764.399741 257.213124a48.435191 48.435191 0 0 1-18.179171 26.613796 54.952855 54.952855 0 0 1-33.323156 9.744547q-30.25602 0-48.115697-19.169601t-17.859678-56.933714q0-40.703452 18.083323-61.087127a60.416191 60.416191 0 0 1 47.412812-20.351726 79.521893 79.521893 0 0 1 29.105844 5.686982 99.713872 99.713872 0 0 1 25.048278 13.802112v29.009996h-52.940047v38.530897h99.522177v-91.119502q-14.504998-14.025758-42.045324-24.728785a153.069261 153.069261 0 0 0-55.783538-10.671077 125.177492 125.177492 0 0 0-62.556797 15.048136A95.848003 95.848003 0 0 0 612.704302 154.751609a139.1713 139.1713 0 0 0-13.418721 60.927381 131.631258 131.631258 0 0 0 14.952289 63.387479z m-237.287706 50.064607h44.952713l93.61155-152.717818v152.717818h42.907956V100.437741H512l-92.205779 149.139492V100.437741h-42.812108z m-213.5813 0h74.154405q42.109223 0 54.920905-3.418579a59.968901 59.968901 0 0 0 32.907815-22.364534q13.258974-17.252641 13.258974-44.537372a74.601696 74.601696 0 0 0-7.635891-35.399863 62.716543 62.716543 0 0 0-19.425196-22.55623 67.093602 67.093602 0 0 0-23.962-10.830824 263.613958 263.613958 0 0 0-47.924002-3.194933h-30.064324v-86.263203H163.400813z m698.731942-437.961475H201.260774a86.902189 86.902189 0 0 0-86.806341 86.806341V30.149205h747.614423z"  horiz-adv-x="1024" />

    
    <glyph glyph-name="wenjianleixingtubiao-27" unicode="&#58916;" d="M900.120514 413.541217h-26.358201V675.525759a9.5848 9.5848 0 0 1-0.575088 3.194933 9.5848 9.5848 0 0 1-2.236454 10.000142l-204.475739 204.47574A9.5848 9.5848 0 0 1 650.116972 886.391365v-204.475739a9.5848 9.5848 0 0 1 9.584801-9.584801h194.890939v-258.789608h-747.614424V875.209098h500.007083a9.5848 9.5848 0 0 1 0 19.169601H97.393488a9.5848 9.5848 0 0 1-9.5848-9.5848V413.541217H61.514386a27.955668 27.955668 0 0 1-27.955668-27.955667v-327.480677A27.955668 27.955668 0 0 1 61.514386 30.149205h26.358201v-52.173263A106.07179 106.07179 0 0 1 193.78463-128h670.392882a9.5848 9.5848 0 0 1 9.584801 9.5848V30.149205h26.358201a27.955668 27.955668 0 0 1 27.955667 27.955668v327.480677a27.955668 27.955668 0 0 1-27.955667 27.955667z m-230.833941 277.959209V863.260047L841.078144 691.500426z m-19.009854-362.36935h156.775384v-38.690644h-110.576646v-54.122172h95.464611v-38.690644h-95.464611V100.437741h-46.166789z m-195.146534 0h156.775384v-38.690644h-110.608596v-54.122172h95.464611v-38.690644h-95.464611V100.437741H455.130185z m-90.480515 0h46.166788V100.437741h-46.166788z m-210.130772 0H336.278661v-38.690644H268.546072V100.437741H222.379284v190.002691H154.518898zM854.592712-108.830399H193.78463a86.902189 86.902189 0 0 0-86.806342 86.806341V30.149205h747.614424z"  horiz-adv-x="1024" />

    
    <glyph glyph-name="wenjianleixingtubiao-28" unicode="&#58917;" d="M498.996621 229.129659a30.319918 30.319918 0 0 1 14.441099 11.246166 30.767209 30.767209 0 0 1 5.207742 17.795779 29.553134 29.553134 0 0 1-7.316398 20.607321A31.949334 31.949334 0 0 1 492.830399 288.938813a222.047874 222.047874 0 0 1-33.227307 1.565518h-22.364534v-64.889098h25.271923q27.284732-0.063899 36.48614 3.514426zM893.059711 413.541217H866.637611V675.525759a9.5848 9.5848 0 0 1-0.575088 3.194933 9.5848 9.5848 0 0 1-2.236453 10.000142l-204.47574 204.47574A9.5848 9.5848 0 0 1 642.992271 886.391365v-204.475739a9.5848 9.5848 0 0 1 9.5848-9.584801h194.89094v-258.789608H99.853587V875.209098h500.007082a9.5848 9.5848 0 0 1 0 19.169601H90.268787a9.5848 9.5848 0 0 1-9.584801-9.5848V413.541217h-26.294302A27.955668 27.955668 0 0 1 26.370118 385.58555v-327.480677a27.955668 27.955668 0 0 1 28.019566-27.955668H80.683986v-52.173263a106.07179 106.07179 0 0 1 106.039841-105.975942H857.052811a9.5848 9.5848 0 0 1 9.5848 9.5848V30.149205h26.358201a27.955668 27.955668 0 0 1 27.955668 27.955668v327.480677a27.955668 27.955668 0 0 1-27.891769 27.955667zM662.161871 691.500426V863.260047L833.985392 691.500426z m-74.37805-362.36935h181.727814v-38.690644h-67.70064V100.437741H655.772005v190.002691h-67.988184z m-196.712052 0h74.090507q42.109223 0 54.920906-3.418579a59.968901 59.968901 0 0 0 32.907814-22.364534q13.258974-17.252641 13.258974-44.537372a74.601696 74.601696 0 0 0-7.635891-35.399863 62.716543 62.716543 0 0 0-19.425195-22.55623A67.093602 67.093602 0 0 0 515.194933 189.895877a263.613958 263.613958 0 0 0-47.924001-3.194934h-30.032374v-86.263202h-46.166789z m-213.10206 0h74.090507q42.109223 0 54.920906-3.418579a59.968901 59.968901 0 0 0 32.907814-22.364534q13.258974-17.252641 13.258974-44.537372a74.601696 74.601696 0 0 0-7.635891-35.399863 62.716543 62.716543 0 0 0-19.425196-22.55623 67.093602 67.093602 0 0 0-23.962-10.830824 263.613958 263.613958 0 0 0-47.924002-3.194933H224.136498v-86.263203H177.969709zM847.468011-108.830399H186.723827A86.902189 86.902189 0 0 0 99.853587-22.024058V30.149205h747.614424zM285.92651 229.129659a30.319918 30.319918 0 0 1 14.441099 11.246166 30.767209 30.767209 0 0 1 5.207742 17.795779 29.553134 29.553134 0 0 1-7.316398 20.607321 31.949334 31.949334 0 0 1-18.594512 10.159888 222.047874 222.047874 0 0 1-33.227308 1.565518h-22.364534v-64.889098h25.271923q27.38058-0.063899 36.581988 3.514426z"  horiz-adv-x="1024" />

    
    <glyph glyph-name="wenjianleixingtubiaoditu" unicode="&#59083;" d="M671.232 896H61.44C46.08 896 29.696 890.88 18.432 880.64S0 857.6 0 844.8v-921.6c0-12.8 6.144-26.624 18.432-35.84 12.288-10.24 27.648-15.36 43.008-15.36h901.12c15.36 0 31.744 5.12 43.008 15.36 12.288 10.24 18.432 23.04 18.432 35.84V543.232L671.232 896z"  horiz-adv-x="1024" />

    
    <glyph glyph-name="search" unicode="&#58890;" d="M0.021 376.887c0-57.771 11.026-112.162 33.123-163.001 22.010-50.927 51.879-95.359 89.474-133.381 37.638-37.935 81.963-67.9 132.928-89.902 51.096-21.998 105.622-32.999 163.534-32.999 44.975 0 87.779 6.628 128.457 20.007 40.635 13.382 78.318 32.263 112.875 56.385l256.222-256.974c21.619 5.196 42.847 16.673 63.554 34.385 20.752 17.669 34.21 40.706 40.244 69.201l-257.479 255.673c24.181 34.385 42.977 71.973 56.391 112.55 13.416 40.533 20.1 83.19 20.1 128.054 0 57.832-11.025 112.181-33.078 163.172-22.055 50.862-52.094 95.294-90.169 133.229-38.029 38.022-82.57 67.945-133.623 89.967-51.009 21.998-105.493 33.063-163.493 33.063-57.912 0-112.438-11.065-163.534-33.063-50.967-22.022-95.291-51.945-132.928-89.967-37.595-37.935-67.464-82.367-89.474-133.229-22.098-50.991-33.123-105.34-33.123-163.172zM123.313 376.887c0 40.555 7.725 79.008 23.31 115.256 15.543 36.203 36.813 67.729 63.6 94.448 26.744 26.763 58.129 47.939 94.034 63.42 35.944 15.59 74.581 23.277 116.127 23.277 40.677 0 78.969-7.686 114.87-23.277 35.859-15.482 67.247-36.658 94.030-63.42 26.832-26.72 48.015-58.246 63.558-94.448 15.585-36.247 23.355-74.701 23.355-115.256 0-41.401-7.77-80.030-23.355-115.712-15.543-35.944-36.726-67.21-63.558-93.884-26.783-26.72-58.171-47.897-94.030-63.399-35.902-15.591-74.193-23.387-114.87-23.387-41.547 0-80.183 7.795-116.127 23.387-35.905 15.502-67.29 36.679-94.034 63.399-26.786 26.675-48.055 57.941-63.6 93.884-15.585 35.684-23.31 74.311-23.31 115.712z"  horiz-adv-x="1024" />

    
    <glyph glyph-name="delete2" unicode="&#59301;" d="M512 275.456l253.3376-253.3376a76.6976 76.6976 0 1 1 108.544 108.544L620.6464 384l253.2352 253.3376a76.6976 76.6976 0 1 1-108.544 108.544L512 492.6464 258.6624 745.8815999999999a76.6976 76.6976 0 1 1-108.544-108.544L403.3536 384 150.1184 130.66240000000005a76.6976 76.6976 0 1 1 108.544-108.544L512 275.35360000000003z"  horiz-adv-x="1024" />

    
    <glyph glyph-name="gengduo" unicode="&#59275;" d="M119.466667 718.506667h834.56v-102.4H119.466667zM119.466667 411.306667h834.56v-102.4H119.466667zM119.466667 104.106667h834.56v-102.4H119.466667z"  horiz-adv-x="1024" />

    
    <glyph glyph-name="lianxiren" unicode="&#58933;" d="M440.077947 324.16217c-148.921751 0-270.085298 121.163547-270.085298 270.085298S291.156196 864.332766 440.077947 864.332766s270.085298-121.163547 270.085298-270.085298S588.999698 324.16217 440.077947 324.16217zM440.077947 805.905052c-116.712165 0-211.657584-94.944396-211.657584-211.657584s94.944396-211.657584 211.657584-211.657584 211.657584 94.944396 211.657584 211.657584S556.791136 805.905052 440.077947 805.905052zM837.288574-81.149972c-16.147772 0-29.213345 13.066597-29.213345 29.213345 0 31.353079-11.040451 65.274656-21.739117 98.111528l-5.220908 16.232706c-48.727795 154.085354-182.586478 253.652024-341.037257 253.652024-162.245198 0-303.492152-104.017028-351.535355-258.815627-10.926864-35.204803-16.460904-71.950705-16.460904-109.180632 0-16.147772-13.066597-29.213345-29.213345-29.213345s-29.213345 13.066597-29.213345 29.213345c0 43.107797 6.4192 85.673242 19.085684 126.498042 55.660694 179.390693 219.36001 299.92593 407.338289 299.92593 184.440709 0 340.180749-115.571179 396.72558-294.449195l5.106298-15.776312c11.525498-35.433 24.592095-75.573209 24.592095-116.199489C866.502943-68.084399 853.436346-81.149972 837.288574-81.149972zM980.162586 414.371728 727.994356 414.371728c-16.147772 0-29.213345 13.066597-29.213345 29.213345 0 16.147772 13.066597 29.213345 29.213345 29.213345l252.16823 0c16.147772 0 29.213345-13.066597 29.213345-29.213345C1009.375931 427.438325 996.310358 414.371728 980.162586 414.371728zM980.162586 284.507008l-192.514595 0c-16.147772 0-29.213345 13.066597-29.213345 29.213345 0 16.147772 13.066597 29.213345 29.213345 29.213345l192.514595 0c16.147772 0 29.213345-13.066597 29.213345-29.213345C1009.375931 297.573605 996.310358 284.507008 980.162586 284.507008zM980.162586 154.613636 861.937974 154.613636c-16.147772 0-29.213345 13.066597-29.213345 29.213345s13.066597 29.213345 29.213345 29.213345l118.224612 0c16.147772 0 29.213345-13.066597 29.213345-29.213345S996.310358 154.613636 980.162586 154.613636z"  horiz-adv-x="1024" />

    
    <glyph glyph-name="smiling" unicode="&#58941;" d="M511.998 829.458c-246.018 0-445.457-199.44-445.457-445.458 0-246.017 199.439-445.457 445.457-445.457 246.019 0 445.46 199.44 445.46 445.457 0 246.018-199.44 445.458-445.46 445.458zM511.998-33.809c-230.747 0-417.81 187.056-417.81 417.809 0 230.754 187.062 417.81 417.81 417.81 230.748 0 417.809-187.056 417.809-417.81 0-230.752-187.060-417.809-417.809-417.809zM319.959 458.872c26.563 0 48.095 27.031 48.095 60.375s-21.532 60.375-48.095 60.375-48.095-27.031-48.095-60.375 21.532-60.375 48.095-60.375zM692.442 458.872c26.562 0 48.095 27.031 48.095 60.375s-21.533 60.375-48.095 60.375-48.095-27.031-48.095-60.375 21.533-60.375 48.095-60.375zM216.020 348.355c10.431-154.387 138.948-276.393 295.98-276.393 157.031 0 285.546 122.006 295.977 276.393l-591.957-0z"  horiz-adv-x="1024" />

    
    <glyph glyph-name="jiandao" unicode="&#58893;" d="M471.297 426.643c-5.818 0-11.632 1.94-15.508 7.75l-282.993 405.11c-5.818 9.692-3.879 21.319 3.879 27.139 9.692 5.818 21.319 3.879 27.139-3.879l282.993-405.11c5.818-9.692 3.879-21.319-3.879-27.139-3.879-1.94-7.75-3.879-11.632-3.879zM833.761-90.885c-5.818 0-11.632 1.94-15.508 7.75l-317.886 453.564c-5.818 9.692-3.879 21.319 3.879 27.139 9.692 5.818 21.319 3.879 27.139-3.879l306.256-436.118c36.83 31.013 60.091 73.653 69.778 120.174 9.692 54.274-1.94 108.546-34.887 153.13-50.397 73.653-143.434 104.669-228.722 77.533-9.692-3.879-21.319 1.94-25.2 13.568-3.879 9.692 1.94 21.319 13.568 25.2 100.793 31.013 211.276-5.818 271.365-93.038 77.533-110.485 50.397-261.671-60.091-339.206-1.94-3.879-5.818-5.818-9.692-5.818zM199.93-90.885c-3.879 0-7.75 1.94-11.632 3.879-110.485 77.533-137.622 228.722-60.091 339.206 62.025 87.223 170.571 124.053 271.365 93.038 9.692-3.879 15.508-13.568 13.568-25.2s-13.568-15.508-25.2-13.568c-85.286 27.139-176.387-3.879-228.722-77.533-31.013-44.58-42.642-98.854-34.887-153.13 7.75-48.455 32.951-89.166 69.778-120.174l633.829 905.193c5.818 9.692 17.444 11.632 27.139 3.879 9.692-5.818 11.632-17.444 3.879-27.139l-643.522-918.764c-3.879-5.818-9.692-9.692-15.508-9.692z"  horiz-adv-x="1024" />

    
    <glyph glyph-name="xiaoxi" unicode="&#58903;" d="M510.971066 48.064948c-28.703739 0-74.801636 0-74.801636 0L230.478743-64.139553 230.478743 141.549086C127.943462 213.529467 62.172503 316.831204 62.172503 440.781214c0 216.874399 200.940498 392.697847 448.798563 392.697847 247.862157 0 448.801632-175.824471 448.801632-392.697847C959.791118 223.869976 758.850619 48.064948 510.971066 48.064948L510.971066 48.064948 510.971066 48.064948zM510.971066 777.395742c-216.872353 0-392.733663-150.708444-392.733663-336.614527 0-114.073058 67.078745-219.61993 168.343079-280.493346L286.580482 35.611312l149.568481 68.555375c0 0 42.057885 0 74.803683 0 216.873376 0 392.735709 150.709467 392.735709 336.614527C903.707798 626.704694 727.845465 777.395742 510.971066 777.395742L510.971066 777.395742 510.971066 777.395742zM735.398488 384.679475c-31.005155 0-56.119135 25.116027-56.119135 56.121182s25.113981 56.121182 56.119135 56.121182c30.971385 0 56.087413-25.116027 56.087413-56.121182S766.369873 384.679475 735.398488 384.679475L735.398488 384.679475 735.398488 384.679475zM510.971066 384.679475c-31.005155 0-56.120159 25.116027-56.120159 56.121182s25.113981 56.121182 56.120159 56.121182c31.007201 0 56.123228-25.116027 56.123228-56.121182S541.978267 384.679475 510.971066 384.679475L510.971066 384.679475 510.971066 384.679475zM286.56411 384.679475c-30.968315 0-56.084343 25.116027-56.084343 56.101739 0 30.987758 25.116027 56.122205 56.084343 56.122205 31.005155 0 56.120159-25.116027 56.120159-56.122205S317.549821 384.679475 286.56411 384.679475L286.56411 384.679475 286.56411 384.679475z"  horiz-adv-x="1024" />

    
    <glyph glyph-name="weixinxiaoxixianxing" unicode="&#58954;" d="M225.925915 0.099344c-4.696253 0-9.392507 1.372751-13.366259 4.190503-6.863755 4.696253-10.765258 12.643759-10.259508 20.880265l6.358005 112.999083C118.995837 206.228745 67.8428 302.321315 67.8428 403.688139c0 200.782897 199.121146 364.140267 443.976575 364.140267 245.072179 0 444.410075-163.35737 444.410075-364.140267 0-200.566147-199.410146-363.706766-444.410075-363.706766-51.731038 0-101.222324 6.936005-147.462358 20.663515l-128.605094-58.378043c-3.106752-1.445001-6.502505-2.167502-9.826008-2.167501z m285.82121 720.260777c-218.62866 0-396.43604-142.043604-396.436041-316.671982 0-89.734566 47.901785-175.278628 131.495097-234.668171 6.647005-4.696253 10.404008-12.499259 9.970507-20.663516l-4.913004-86.627813 101.005574 45.878784c5.346504 2.456502 11.487758 2.817752 17.051013 1.0115 44.000282-14.01651 91.757567-21.169266 141.826854-21.169265 218.84541 0 396.941791 141.826854 396.941791 316.238481 0 174.628378-178.02413 316.671982-396.941791 316.671982z"  horiz-adv-x="1024" />

    
    <glyph glyph-name="wenjianjia" unicode="&#58887;" d="M928.67 689.56H534.14a55.57 55.57 0 0 0-27.56 7.32L350.54 786a111.36 111.36 0 0 1-55.12 14.65H95.33A83.42 83.42 0 0 1 12 717.33v-666.66a83.42 83.42 0 0 1 83.33-83.33h833.34a83.42 83.42 0 0 1 83.33 83.33V606.22a83.42 83.42 0 0 1-83.33 83.34z m27.78-638.89a27.8 27.8 0 0 0-27.78-27.78H95.33a27.8 27.8 0 0 0-27.78 27.78V467.33h888.89zM67.56 522.89V717.33a27.8 27.8 0 0 0 27.78 27.78h200.08a55.57 55.57 0 0 0 27.58-7.32l156-89.14A111.36 111.36 0 0 1 534.14 634h394.53a27.8 27.8 0 0 0 27.78-27.78v-83.33z"  horiz-adv-x="1024" />

    


  </font>
</defs>
</svg>
